<svg width="300" height="328" viewBox="0 0 300 328" fill="none" xmlns="http://www.w3.org/2000/svg">
<path opacity="0.1" d="M212.938 51.2711C240.483 71.2083 276.077 84.7384 291.265 110.609C306.222 136.501 300.526 174.932 285.095 213.627C269.906 252.317 244.984 291.481 207.721 311.655C170.458 331.829 120.606 333.25 88.3291 310.95C56.0517 288.649 41.5685 242.583 26.1432 203.182C10.9494 163.539 -4.94968 130.805 1.45732 103.26C7.86431 75.7146 36.5828 53.1772 64.3538 33.477C92.1248 13.5398 119.185 -3.78605 142.444 0.720334C165.703 5.22671 185.167 31.334 212.938 51.2711Z" fill="#2DBFAC"/>
<path d="M157.544 142.374L158.701 137.471L158.365 129.251L169.306 128.287L171.482 135.867C172.551 138.291 172.964 141.861 172.964 144.434C172.964 147.695 170.088 151.205 166.904 151.678C163.72 152.152 159.985 149.701 159.985 149.701" fill="white"/>
<path d="M124.435 93.6906C124.435 93.6906 127.603 94.1368 128.473 93.4041C129.344 92.6714 129.151 88.5892 129.151 88.5892L141.877 91.4539C141.877 91.4539 141.877 93.7567 142.521 94.9797C143.166 96.2027 147.837 96.1972 147.837 96.1972C147.837 96.1972 156.872 111.49 135.718 107.81C114.563 104.13 124.435 93.6906 124.435 93.6906Z" fill="white"/>
<path d="M158.415 116.074C158.415 116.074 157.798 123.235 157.555 127.235C157.313 131.235 157.627 152.632 157.985 156.747C158.343 160.862 167.036 164.889 165.698 165.379C164.359 165.87 151.793 165.335 138.99 165.716C126.187 166.096 107.589 170.046 107.589 168.36C107.589 166.674 110.597 129.527 110.597 129.527L112.762 125.059L108.795 133.251L108.619 133.614C108.619 133.614 105.231 128.75 100.151 127.119C95.0722 125.489 91.8879 126.91 91.8879 126.91C93.3754 122.271 95.6065 118.211 99.8815 110.818C104.157 103.425 106.839 99.1775 111.225 96.7976C115.213 94.6381 119.042 94.1533 123.179 93.3765C123.542 93.2929 123.918 93.2929 124.281 93.3765C124.512 93.4537 124.567 93.5253 124.832 94.1148C125.84 96.2027 129.035 100.896 137.255 100.676C144.416 100.478 146.482 98.23 147.066 96.8197C147.342 96.1476 147.243 96.1531 147.441 95.9437C147.639 95.7344 147.805 95.8501 148.411 96.0705C150.614 96.8748 155.991 98.9021 159.908 100.863C164.893 103.353 166.904 112.085 167.687 117.809C168.122 120.982 169.444 125.968 170.127 129.615C170.127 129.615 171.108 129.444 170.678 129.428C169.319 129.298 167.95 129.339 166.601 129.549C164.657 129.89 157.533 132 157.533 132" fill="#2DBFAC"/>
<path d="M107.721 166.399C108.272 158.411 110.591 129.527 110.591 129.527L112.756 125.059L108.79 133.251L108.613 133.614C108.613 133.614 105.225 128.75 100.146 127.119C95.0666 125.489 91.8824 126.91 91.8824 126.91C93.3698 122.271 95.601 118.211 99.876 110.818C104.151 103.425 106.834 99.1775 111.219 96.7976C115.208 94.6381 119.036 94.1533 123.174 93.3765C123.536 93.2929 123.913 93.2929 124.275 93.3765C124.507 93.4537 124.562 93.5253 124.826 94.1148C125.834 96.2027 129.03 100.896 137.249 100.676C144.411 100.478 146.477 98.23 147.061 96.8197C147.336 96.1476 147.237 96.1531 147.435 95.9437C147.634 95.7344 147.799 95.8501 148.405 96.0705C150.609 96.8748 155.985 98.9021 159.902 100.863C164.888 103.353 166.899 112.085 167.681 117.809C168.116 120.982 169.438 125.968 170.121 129.615C170.121 129.615 171.102 129.444 170.672 129.428C169.314 129.298 167.944 129.339 166.596 129.549C164.651 129.89 157.528 132 157.528 132" fill="#2DBFAC"/>
<path d="M140.114 129.984L125.295 146.417L151.71 153.722L153.506 152.389L166.309 138.815L168.474 137.261L167.995 136.606" fill="#231F20"/>
<path d="M140.114 129.984L125.295 146.417L151.71 153.722L153.506 152.389L166.309 138.815L168.474 137.261L167.995 136.606" stroke="#231F20" stroke-linecap="round" stroke-linejoin="round"/>
<path d="M107.666 131.041C107.352 131.372 105.17 136.203 104.873 138.203C104.559 140.33 107.043 142.148 110.999 142.924C114.954 143.701 119.73 145.051 122.176 144.979C127.074 144.831 128.451 144.616 132.093 143.123C133.503 142.572 135.293 143.029 137.916 143.393C142.108 143.977 146.73 145.547 145.077 148.141C144.874 148.45 144.257 148.516 144.058 148.825C143.744 149.309 143.899 150.593 143.607 151.067C143.43 151.348 142.505 151.59 142.345 151.855C142.009 152.345 141.998 153.204 141.678 153.623C141.359 154.042 139.893 153.987 139.552 154.295C138.929 154.846 138.973 155.397 138.45 155.788C137.927 156.179 136.731 156.339 135.547 156.339C130.82 156.339 127.741 154.328 125.449 154.091C123.157 153.854 118.629 152.901 112.1 152.907C106.58 152.893 101.063 152.594 95.5734 152.009C89.4859 151.458 89.4749 146.246 90.4831 137.173C90.8357 134 92.7969 128.397 93.2762 126.205C93.2762 126.083 93.3202 125.973 93.3368 125.869C93.3808 125.632 97.9478 125.758 101.534 127.213C103.766 128.16 105.835 129.452 107.666 131.041V131.041Z" fill="white"/>
<path d="M84.6931 171.991H63.544L54.1015 132.287H94.1356L84.6931 171.991Z" fill="white"/>
<path d="M103.121 64.3108C103.121 64.3108 106.757 88.4844 100.972 97.7505C97.6338 103.089 89.8606 106.168 82.9192 103.574C80.8179 102.794 78.9515 101.489 77.4983 99.7834C74.3802 96.0923 72.8707 91.0516 74.9862 86.11C77.1017 81.1684 83.6794 81.3888 92.4553 75.2187C96.6369 72.253 100.25 68.5579 103.121 64.3108V64.3108Z" fill="#2DBFAC"/>
<path d="M52.4158 120.04C52.4158 120.04 56.6412 125.213 59.5775 125.747C60.5065 125.876 61.4519 125.692 62.2648 125.224C63.0777 124.756 63.7118 124.032 64.0673 123.164C64.4213 122.25 64.4019 121.233 64.0134 120.334C63.6249 119.434 62.8983 118.723 61.9905 118.354C60.6022 117.875 59.4398 119.247 56.5806 119.886C55.2131 120.189 53.8019 120.241 52.4158 120.04V120.04Z" fill="#2DBFAC"/>
<path d="M72.8928 108.94C72.8928 108.94 71.9343 115.066 73.3886 117.424C73.8744 118.146 74.5871 118.687 75.4142 118.959C76.2413 119.231 77.1355 119.22 77.9556 118.928C78.8051 118.607 79.4946 117.965 79.8758 117.141C80.257 116.317 80.2995 115.376 79.994 114.52C79.443 113.264 77.7903 113.308 75.5867 111.727C74.5263 110.97 73.6133 110.026 72.8928 108.94Z" fill="#2DBFAC"/>
<path d="M31.9167 53.5461C33.3773 57.1933 34.5165 60.9611 35.3213 64.8066C36.0595 68.3874 36.087 70.0567 37.321 72.6349C38.6193 75.4817 40.6638 77.924 43.2377 79.703C48.901 83.4326 56.8009 82.788 62.1502 79.1521C66.5133 76.1882 69.2072 71.0593 65.9624 64.6523C62.7176 58.2453 52.8895 59.6061 44.9896 59.1433C37.0897 58.6806 35.0513 55.0556 31.9167 53.5461Z" fill="#2DBFAC"/>
<path d="M69.6039 74.4309C69.979 75.4912 70.4473 76.5162 71.0032 77.4939C71.44 78.1359 71.7866 78.8347 72.0334 79.5708C72.2943 80.4261 72.319 81.336 72.105 82.2041C71.813 83.1179 71.2658 83.9292 70.5278 84.5422C69.7899 85.1552 68.892 85.5444 67.9402 85.6638C67.1505 85.8192 66.3314 85.6547 65.663 85.2063C64.9946 84.758 64.5316 84.0625 64.3758 83.2729C63.858 81.2896 66.2269 79.7196 67.83 78.122C69.4331 76.5243 69.2183 75.3509 69.6039 74.4309Z" fill="#2DBFAC"/>
<path d="M27.5921 95.3487C30.1813 97.1006 33.1011 99.0838 36.5994 104.764C40.0976 110.443 48.7633 115.021 52.9997 113.87C55.5889 112.768 57.3188 111.578 59.7648 107.386C60.2957 106.174 60.4862 104.841 60.3157 103.53C59.3351 97.1446 48.5209 93.4095 40.8909 92.9743C36.3344 92.7337 31.7838 93.5462 27.5921 95.3487V95.3487Z" fill="#2DBFAC"/>
<path d="M89.5246 115.567C88.2295 116.535 86.7158 117.169 85.1173 117.412C82.7099 117.859 79.9939 120.227 79.8287 121.82C79.8672 122.855 80.0435 123.604 81.1619 124.998C81.5082 125.338 81.9404 125.578 82.4124 125.692C84.7317 126.199 87.4421 122.982 88.599 120.426C89.2746 118.898 89.5912 117.236 89.5246 115.567V115.567Z" fill="#2DBFAC"/>
<path d="M58.8999 91.4541C59.9526 92.2386 61.1825 92.7514 62.4807 92.947C64.4364 93.3106 66.64 95.2333 66.7723 96.5389C66.7723 97.3763 66.596 97.9823 65.6705 99.1116C65.3875 99.382 65.0376 99.5722 64.6568 99.6625C62.7727 100.07 60.5746 97.4589 59.6381 95.3875C59.0946 94.15 58.8421 92.8044 58.8999 91.4541V91.4541Z" fill="#2DBFAC"/>
<path d="M199.683 204.124H245.281C245.281 204.124 249.898 209.754 249.898 220.211C249.898 230.667 245.281 236.027 245.281 236.027H199.556" fill="white"/>
<path d="M76.4076 236.027C76.4076 236.027 81.6412 230.661 81.6412 220.211C81.6412 209.76 77.0246 204.124 77.0246 204.124H199.358C199.358 204.124 204.074 209.754 204.074 220.211C204.074 230.667 199.358 236.027 199.358 236.027H76.4076Z" fill="white"/>
<path d="M71.1685 206.752H197.132C197.132 206.752 200.73 211.159 200.73 219.842C200.73 228.524 197.132 233.234 197.132 233.234H71.1685C70.8295 233.234 70.5044 233.369 70.2648 233.608C70.0251 233.848 69.8904 234.173 69.8904 234.512C69.8904 234.851 70.0251 235.176 70.2648 235.416C70.5044 235.656 70.8295 235.79 71.1685 235.79H199.292C199.292 235.79 203.908 230.43 203.908 219.974C203.908 209.518 199.292 203.893 199.292 203.893H71.1685C70.8047 203.916 70.4632 204.076 70.2136 204.342C69.9639 204.607 69.825 204.958 69.825 205.323C69.825 205.687 69.9639 206.038 70.2136 206.303C70.4632 206.569 70.8047 206.73 71.1685 206.752V206.752Z" fill="white"/>
<path d="M223.895 236.077H178.297V236.33C178.176 236.159 178.104 236.077 178.104 236.077H49.9973C49.6335 236.099 49.292 236.26 49.0424 236.525C48.7927 236.791 48.6537 237.142 48.6537 237.506C48.6537 237.871 48.7927 238.222 49.0424 238.487C49.292 238.753 49.6335 238.913 49.9973 238.936H57.3794C59.3446 243.063 60.3324 247.587 60.2661 252.157C60.3487 256.802 59.1763 261.383 56.8726 265.418H49.9973C49.6583 265.418 49.3332 265.552 49.0936 265.792C48.8539 266.032 48.7192 266.357 48.7192 266.696C48.7192 267.035 48.8539 267.36 49.0936 267.6C49.3332 267.839 49.6583 267.974 49.9973 267.974H178.104L178.148 267.924V267.979H223.873C223.873 267.979 228.49 262.619 228.49 252.163C228.49 241.707 223.895 236.077 223.895 236.077Z" fill="#2DBFAC"/>
<path d="M219.124 297.255H212.238C209.935 293.22 208.763 288.639 208.844 283.994C208.778 279.424 209.766 274.9 211.731 270.773H219.124C219.482 270.741 219.816 270.577 220.059 270.312C220.302 270.046 220.436 269.7 220.436 269.34C220.436 268.981 220.302 268.634 220.059 268.369C219.816 268.104 219.482 267.939 219.124 267.908H45.2045C45.2045 267.908 40.5879 273.538 40.5879 283.994C40.5879 294.45 45.2045 299.811 45.2045 299.811H90.9293V299.756L90.9734 299.811H219.124C219.463 299.811 219.788 299.676 220.028 299.436C220.268 299.197 220.402 298.872 220.402 298.533C220.402 298.194 220.268 297.869 220.028 297.629C219.788 297.389 219.463 297.255 219.124 297.255V297.255Z" fill="white"/>
<path d="M96.0031 172.227H50.405C50.405 172.227 45.7884 177.858 45.7884 188.314C45.7884 198.77 50.405 204.125 50.405 204.125H96.1298" fill="white"/>
<path d="M219.273 204.125C219.273 204.125 214.045 198.764 214.045 188.314C214.045 177.863 218.662 172.227 218.662 172.227H96.3227C96.3227 172.227 91.6125 177.858 91.6125 188.314C91.6125 198.77 96.3227 204.125 96.3227 204.125H219.273Z" fill="white"/>
<path d="M224.308 175.092H98.3444C98.3444 175.092 94.747 179.499 94.747 188.176C94.747 196.853 98.3444 201.568 98.3444 201.568H224.308C224.647 201.568 224.972 201.703 225.212 201.943C225.452 202.182 225.586 202.508 225.586 202.847C225.586 203.186 225.452 203.511 225.212 203.75C224.972 203.99 224.647 204.125 224.308 204.125H96.1904C96.1904 204.125 91.5793 198.764 91.5793 188.314C91.5793 177.863 96.1904 172.227 96.1904 172.227H224.308C224.666 172.259 225 172.423 225.243 172.689C225.486 172.954 225.62 173.3 225.62 173.66C225.62 174.019 225.486 174.366 225.243 174.631C225 174.896 224.666 175.061 224.308 175.092V175.092Z" fill="white"/>
<path d="M100.741 278.75V292.142L105.501 287.382L109.869 291.756V278.75" fill="#2DBFAC"/>
<path d="M124.523 70.806C124.523 70.806 121.113 70.492 121.67 74.0618C122.226 77.6317 124.623 78.0559 124.623 78.0559" fill="white"/>
<path d="M148.829 63.5946C148.829 63.5946 153.115 90.7431 138.213 92.2416C123.311 93.74 123.752 68.696 123.752 68.696L124.623 61.1652" fill="white"/>
<path d="M143.75 292.252L142.775 286.936L130.413 287.526L129.421 292.605" fill="white"/>
<path d="M154.669 244.417C155.666 245.701 157.825 249.811 159.115 252.769C160.404 255.728 162.651 260.956 159.924 262.388C158.747 263.027 157.403 263.293 156.071 263.152C154.739 263.01 153.482 262.467 152.465 261.595C150.741 260.014 146.135 254.488 146.135 254.488L145.634 240.258L145.474 235.978" fill="#231F20"/>
<path d="M156.762 263.457C155.118 263.469 153.526 262.881 152.283 261.804C150.565 260.228 146.119 254.896 145.931 254.67C145.893 254.623 145.87 254.565 145.865 254.505L145.204 235.994H145.755L146.405 254.383C146.956 255.039 151.066 259.942 152.652 261.391C153.629 262.228 154.837 262.749 156.116 262.884C157.395 263.018 158.685 262.761 159.814 262.146C162.343 260.818 160.001 255.458 158.878 252.879C157.539 249.816 155.396 245.784 154.47 244.583L154.906 244.247C155.969 245.613 158.145 249.816 159.39 252.659C160.668 255.595 163.059 261.066 160.073 262.63C159.054 263.174 157.917 263.458 156.762 263.457Z" fill="#231F20"/>
<path d="M137.172 76.5906C137.504 76.5906 137.773 76.3218 137.773 75.9901C137.773 75.6585 137.504 75.3896 137.172 75.3896C136.84 75.3896 136.572 75.6585 136.572 75.9901C136.572 76.3218 136.84 76.5906 137.172 76.5906Z" fill="#231F20" stroke="#231F20" stroke-linecap="round" stroke-linejoin="round"/>
<path d="M146.405 76.9651C146.737 76.9651 147.006 76.6963 147.006 76.3646C147.006 76.033 146.737 75.7642 146.405 75.7642C146.074 75.7642 145.805 76.033 145.805 76.3646C145.805 76.6963 146.074 76.9651 146.405 76.9651Z" fill="#231F20" stroke="#231F20" stroke-linecap="round" stroke-linejoin="round"/>
<path d="M163.99 149.706C162.666 149.851 161.331 149.851 160.007 149.706C158.431 149.447 158.431 149.238 155.864 147.348C153.297 145.459 150.228 143.63 149.727 142.842C149.59 142.616 149.536 142.35 149.574 142.088C149.612 141.827 149.74 141.587 149.936 141.41C149.936 141.41 148.939 140.567 149.308 139.696C149.678 138.826 151.093 139.013 151.093 139.013C151.078 138.767 151.119 138.52 151.215 138.293C151.31 138.065 151.457 137.863 151.644 137.702C152.289 137.217 153.953 137.702 153.953 137.702L161.505 141.41L163.235 142.682L159.511 139.536C159.511 139.536 157.787 138.148 157.401 137.735C157.016 137.322 156.724 136.507 157.258 136.022C157.792 135.537 159.566 136.369 159.566 136.369C159.566 136.369 161.136 137.283 162.552 138.066C164.167 138.837 165.822 139.521 167.51 140.115" fill="white"/>
<path d="M160.47 145.073L155.616 141.647C154.171 140.666 152.66 139.786 151.093 139.013" fill="white"/>
<path d="M159.302 147.47L154.448 144.026C152.999 143.049 151.486 142.169 149.92 141.393" fill="white"/>
<path d="M128.435 299.541H145.259C145.259 299.541 147.143 296.88 146.212 294.709C145.281 292.539 141.706 290.726 137.398 290.726C133.09 290.726 128.523 292.103 127.652 294.362C126.782 296.621 128.435 299.541 128.435 299.541Z" fill="#231F20"/>
<path d="M145.259 299.816H128.435C128.387 299.815 128.34 299.801 128.299 299.777C128.257 299.753 128.223 299.719 128.198 299.678C128.126 299.552 126.457 296.621 127.366 294.263C128.33 291.762 133.128 290.451 137.37 290.451C141.612 290.451 145.436 292.197 146.466 294.605C147.446 296.891 145.562 299.563 145.485 299.695C145.46 299.732 145.427 299.763 145.388 299.784C145.348 299.805 145.304 299.816 145.259 299.816V299.816ZM128.6 299.265H145.127C145.463 298.742 146.73 296.577 145.975 294.819C145.044 292.616 141.353 291.002 137.387 291.002C132.737 291.002 128.661 292.489 127.9 294.461C127.173 296.307 128.291 298.67 128.6 299.265Z" fill="#231F20"/>
<path d="M132.153 63.5946C132.153 63.5946 143.766 67.5225 151.093 65.9194C158.42 64.3163 159.577 53.6728 154.492 50.2958C149.408 46.9188 143.1 51.0175 143.1 51.0175C143.1 51.0175 139.855 43.674 132.082 46.12C124.309 48.566 125.256 54.3835 125.256 54.3835C125.256 54.3835 117.659 54.8518 117.659 62.5369C117.659 70.2219 126.033 72.6624 129.057 70.3597C132.082 68.0569 132.153 63.5946 132.153 63.5946Z" fill="#231F20" stroke="#231F20" stroke-miterlimit="10"/>
<path d="M164.662 139.013C165.571 138.763 166.426 138.348 167.185 137.79C167.769 137.278 168.017 137.311 168.568 135.873C169.119 134.435 170.502 131.18 171.609 131.631C172.716 132.083 171.796 133.769 171.57 135.223C171.344 136.678 170.667 138.661 170.54 139.801C170.413 140.941 169.477 145.31 169.477 145.31" fill="white"/>
<path d="M112.756 125.064L110.15 130.441Z" fill="#2DBFAC"/>
<path d="M110.723 167.886C110.723 167.886 111.897 184.578 113.985 191.404C116.072 198.23 119.714 208.482 122.501 227.213C125.289 245.943 124.92 284.286 125.295 286.352C125.669 288.418 146.928 287.784 146.884 285.757C146.84 283.73 146.003 235.708 144.714 226.017C143.425 216.327 142.51 185.73 142.51 185.73L172.347 202.808L144.56 224.734C144.56 224.734 145.033 228.772 145.144 230.579L145.48 235.978C145.48 235.978 150.796 245.949 152.73 245.618C154.663 245.288 191.882 214.922 194.598 212.95C197.49 210.75 199.491 207.582 200.234 204.025C201.06 200.29 200.283 197.701 196.747 193.685C193.21 189.669 164.464 165.076 164.464 165.076" fill="white"/>
<path d="M140.808 75.3567C140.912 75.2449 141.038 75.1566 141.179 75.0976C141.319 75.0387 141.471 75.0106 141.623 75.0151C141.951 75.0151 142.267 75.1368 142.51 75.3567" stroke="#231F20" stroke-miterlimit="10"/>
<path d="M90.3894 148.032L84.693 171.99H63.5439L54.1014 132.287H91.414" stroke="#231F20" stroke-linecap="round" stroke-linejoin="round"/>
<path d="M68.8546 132.287L59.0706 107.926L28.4625 95.3381" stroke="#231F20" stroke-linecap="round" stroke-linejoin="round"/>
<path d="M47.5292 103.012L44.3065 97.057" stroke="#231F20" stroke-linecap="round" stroke-linejoin="round"/>
<path d="M52.603 105.469L45.9206 107.832" stroke="#231F20" stroke-linecap="round" stroke-linejoin="round"/>
<path d="M74.0055 132.287L63.307 78.2765L31.9166 53.5465" stroke="#231F20" stroke-linecap="round" stroke-linejoin="round"/>
<path d="M58.1671 74.2218L45.6561 73.726" stroke="#231F20" stroke-linecap="round" stroke-linejoin="round"/>
<path d="M54.5532 71.3737L55.1757 64.3112" stroke="#231F20" stroke-linecap="round" stroke-linejoin="round"/>
<path d="M78.6827 132.287L81.3876 102.891L103.121 64.3112" stroke="#231F20" stroke-linecap="round" stroke-linejoin="round"/>
<path d="M84.671 97.0565L97.9367 91.2004" stroke="#231F20" stroke-miterlimit="10" stroke-linecap="round"/>
<path d="M87.9269 91.2833L86.4504 83.6147" stroke="#231F20" stroke-miterlimit="10" stroke-linecap="round"/>
<path d="M141.805 91.4539C141.805 91.4539 141.805 93.7566 142.444 94.9796C143.083 96.2026 147.5 96.5002 147.5 96.5002" stroke="#231F20" stroke-linecap="round" stroke-linejoin="round"/>
<path d="M129.079 88.5896C129.079 88.5896 129.267 92.6718 128.396 93.4045C127.526 94.1372 123.5 94.0002 123.5 94.0002" stroke="#231F20" stroke-miterlimit="10"/>
<path d="M142.51 76.2659C142.51 76.2659 143.507 80.7612 142.94 81.6041C142.373 82.447 140.494 81.863 140.494 81.863" stroke="#231F20" stroke-linecap="round" stroke-linejoin="round"/>
<path d="M136.864 78.9376C139.051 78.9376 140.825 77.1642 140.825 74.9766C140.825 72.789 139.051 71.0156 136.864 71.0156C134.676 71.0156 132.903 72.789 132.903 74.9766C132.903 77.1642 134.676 78.9376 136.864 78.9376Z" stroke="#231F20" stroke-linecap="round" stroke-linejoin="round"/>
<path d="M146.449 78.9376C148.637 78.9376 150.41 77.1642 150.41 74.9766C150.41 72.789 148.637 71.0156 146.449 71.0156C144.262 71.0156 142.488 72.789 142.488 74.9766C142.488 77.1642 144.262 78.9376 146.449 78.9376Z" stroke="#231F20" stroke-linecap="round" stroke-linejoin="round"/>
<path d="M137.772 85.7797C139.425 87.1294 141.127 86.8429 142.51 86.2094" stroke="#231F20" stroke-miterlimit="10" stroke-linecap="round"/>
<path d="M149.402 72.3435C149.435 69.4251 149.251 66.5083 148.851 63.6172" stroke="#231F20" stroke-linecap="round" stroke-linejoin="round"/>
<path d="M124.622 78.0563C126.005 85.0087 129.514 93.1675 138.213 92.2806C145.408 91.5479 148.129 84.8434 149.022 78.1003" stroke="#231F20" stroke-linecap="round" stroke-linejoin="round"/>
<path d="M124.523 70.8063C124.523 70.8063 121.113 70.4923 121.67 74.0622C122.226 77.632 124.622 78.0562 124.622 78.0562" stroke="#231F20" stroke-linecap="round" stroke-linejoin="round"/>
<path d="M160.007 149.707C160.007 149.707 163.759 152.153 166.926 151.684C170.094 151.216 172.986 147.701 172.986 144.44C172.986 141.867 172.573 138.298 171.504 135.874" stroke="#231F20" stroke-linejoin="round"/>
<path d="M162.111 113.204C161.098 113.242 159.07 113.975 158.58 115.853C158.09 117.732 158.437 111.044 159.682 110.185" stroke="#231F20" stroke-linecap="round" stroke-linejoin="round"/>
<path d="M157.561 129.703C157.561 128.276 157.644 126.315 157.776 123.996C158.062 119.038 158.415 116.079 158.415 116.079" stroke="#231F20" stroke-miterlimit="10"/>
<path d="M164.662 139.014C165.571 138.763 166.426 138.349 167.185 137.791C167.769 137.278 168.017 137.311 168.568 135.874C169.119 134.436 170.502 131.18 171.609 131.632C172.716 132.083 171.796 133.769 171.57 135.223C171.344 136.678 170.667 138.661 170.54 139.801C170.413 140.942 169.477 145.311 169.477 145.311" stroke="#231F20" stroke-linecap="round" stroke-linejoin="round"/>
<path d="M107.242 131.907C106.41 133.642 105.087 136.782 104.873 138.237C104.559 140.363 107.043 142.181 110.999 142.958C114.954 143.735 119.73 145.084 122.176 145.013C127.074 144.864 128.451 144.649 132.093 143.156C133.503 142.605 135.293 143.062 137.916 143.426C142.108 144.01 146.73 145.58 145.077 148.175C144.874 148.483 144.257 148.549 144.058 148.858C143.744 149.343 143.899 150.626 143.607 151.1C143.43 151.381 142.505 151.624 142.345 151.888C142.009 152.378 141.998 153.238 141.678 153.656C141.359 154.075 139.893 154.02 139.552 154.328C138.929 154.879 138.973 155.43 138.45 155.821C137.927 156.213 136.731 156.372 135.547 156.372C130.82 156.372 127.741 154.361 125.449 154.125C123.157 153.888 118.629 152.935 112.1 152.94C106.58 152.927 101.063 152.627 95.5734 152.042C89.4859 151.491 89.4749 146.28 90.4831 137.206C90.8136 134.215 92.9015 128.133 93.4965 125.72" stroke="#231F20" stroke-linejoin="round"/>
<path d="M107.886 130.678C107.639 131.062 107.423 131.466 107.241 131.885" stroke="#231F20" stroke-linejoin="round"/>
<path d="M137.784 151.084C139.012 151.1 140.239 151.183 141.458 151.332C142.51 151.53 142.51 151.673 142.51 151.673" stroke="#231F20" stroke-linecap="round" stroke-linejoin="round"/>
<path d="M136.709 154.207C136.709 154.207 139.056 154.207 139.293 154.4" stroke="#231F20" stroke-linecap="round" stroke-linejoin="round"/>
<path d="M138.059 147.53C139.498 147.588 140.93 147.751 142.345 148.02C142.896 148.146 143.4 148.425 143.799 148.825" stroke="#231F20" stroke-linecap="round" stroke-linejoin="round"/>
<path d="M113.439 117.583C113.293 119.59 113.006 121.584 112.58 123.55C112.12 125.603 111.455 127.606 110.596 129.527" stroke="#231F20" stroke-miterlimit="10" stroke-linecap="round"/>
<path d="M163.962 149.707C162.639 149.851 161.303 149.851 159.979 149.707C158.409 149.448 158.409 149.238 155.837 147.349C153.264 145.459 150.206 143.63 149.705 142.842C149.568 142.616 149.513 142.35 149.552 142.088C149.59 141.827 149.718 141.587 149.914 141.41C149.914 141.41 148.917 140.567 149.286 139.697C149.655 138.826 151.066 139.013 151.066 139.013C151.053 138.765 151.099 138.517 151.199 138.289C151.3 138.061 151.452 137.86 151.644 137.702C152.283 137.218 153.407 137.548 153.952 137.702C154.498 137.857 161.5 141.41 161.5 141.41L163.23 142.683L159.511 139.537C159.511 139.537 157.787 138.149 157.396 137.735C157.004 137.322 156.723 136.507 157.252 136.022C157.781 135.537 159.566 136.369 159.566 136.369C159.566 136.369 161.136 137.284 162.552 138.066C164.166 138.839 165.821 139.523 167.51 140.115" stroke="#231F20" stroke-linecap="round" stroke-linejoin="round"/>
<path d="M160.448 145.073L155.594 141.647C154.147 140.667 152.634 139.787 151.066 139.013" stroke="#231F20" stroke-linecap="round" stroke-linejoin="round"/>
<path d="M159.274 147.47L154.421 144.027C152.974 143.048 151.463 142.168 149.898 141.393" stroke="#231F20" stroke-linecap="round" stroke-linejoin="round"/>
<path d="M170.683 204.125H143.309" stroke="#231F20" stroke-linecap="round" stroke-linejoin="round"/>
<path d="M165.643 236.027H199.523C199.523 236.027 204.14 230.662 204.14 220.211C204.14 211.903 201.225 206.648 200.024 204.835" stroke="#231F20" stroke-linecap="round" stroke-linejoin="round"/>
<path d="M123.267 233.471H71.4053C71.0663 233.471 70.7412 233.606 70.5015 233.845C70.2619 234.085 70.1272 234.41 70.1272 234.749C70.1272 235.088 70.2619 235.413 70.5015 235.653C70.7412 235.892 71.0663 236.027 71.4053 236.027H123.493" stroke="#231F20" stroke-linecap="round" stroke-linejoin="round"/>
<path d="M198.416 208.658C199.479 210.686 200.944 214.487 200.944 220.051C200.944 228.733 197.347 233.449 197.347 233.449H168.876" stroke="#231F20" stroke-linecap="round" stroke-linejoin="round"/>
<path d="M143.386 206.99H167.058" stroke="#231F20" stroke-linecap="round" stroke-linejoin="round"/>
<path d="M117.637 204.125H71.4053C71.0471 204.156 70.7137 204.321 70.4708 204.586C70.2279 204.851 70.0932 205.197 70.0932 205.557C70.0932 205.917 70.2279 206.263 70.4708 206.528C70.7137 206.793 71.0471 206.958 71.4053 206.989H118.529" stroke="#231F20" stroke-linecap="round" stroke-linejoin="round"/>
<path d="M200.041 204.125H245.309C245.309 204.125 249.925 209.755 249.925 220.211C249.925 230.667 245.309 236.027 245.309 236.027H199.584" stroke="#231F20" stroke-linejoin="round"/>
<path d="M265.483 299.855H24.9147" stroke="#231F20" stroke-linejoin="round"/>
<path d="M146.521 267.946H219.168C219.526 267.978 219.86 268.142 220.103 268.408C220.346 268.673 220.48 269.019 220.48 269.379C220.48 269.738 220.346 270.085 220.103 270.35C219.86 270.615 219.526 270.78 219.168 270.811H146.592" stroke="#231F20" stroke-linecap="round" stroke-linejoin="round"/>
<path d="M128.391 299.855H90.9789C90.9789 299.855 86.3568 294.489 86.3568 284.039C86.3568 273.588 90.9734 267.952 90.9734 267.952H124.821" stroke="#231F20" stroke-linecap="round" stroke-linejoin="round"/>
<path d="M146.322 297.299H219.124C219.463 297.299 219.788 297.433 220.028 297.673C220.268 297.913 220.402 298.238 220.402 298.577C220.402 298.916 220.268 299.241 220.028 299.48C219.788 299.72 219.463 299.855 219.124 299.855H145.215" stroke="#231F20" stroke-linecap="round" stroke-linejoin="round"/>
<path d="M124.821 270.817H93.1329C93.1329 270.817 89.53 275.224 89.53 283.901C89.53 292.577 93.1329 297.298 93.1329 297.298H127.449" stroke="#231F20" stroke-linecap="round" stroke-linejoin="round"/>
<path d="M211.896 270.696C209.905 274.844 208.904 279.399 208.971 284C208.89 288.664 210.072 293.263 212.392 297.31" stroke="#231F20" stroke-miterlimit="10"/>
<path d="M146.796 278.904H174.622" stroke="#231F20" stroke-linecap="round" stroke-linejoin="round"/>
<path d="M94.9509 278.904H125.041" stroke="#231F20" stroke-linecap="round" stroke-linejoin="round"/>
<path d="M217.141 175.01C215.15 179.158 214.149 183.713 214.216 188.314C214.132 192.978 215.314 197.578 217.637 201.624" stroke="#231F20" stroke-miterlimit="10"/>
<path d="M115.009 194.688H102.515" stroke="#231F20" stroke-miterlimit="10" stroke-linecap="round"/>
<path d="M158.161 194.688H142.824" stroke="#231F20" stroke-miterlimit="10" stroke-linecap="round"/>
<path d="M206.415 194.688H197.667" stroke="#231F20" stroke-miterlimit="10" stroke-linecap="round"/>
<path d="M96.0031 172.227H50.405C50.405 172.227 45.7884 177.857 45.7884 188.314C45.7884 198.77 50.405 204.124 50.405 204.124H96.1298" stroke="#231F20" stroke-linejoin="round"/>
<path d="M117.725 204.124H96.1904C96.1904 204.124 91.5793 198.764 91.5793 188.314C91.5793 177.863 96.1904 172.227 96.1904 172.227H111.065" stroke="#231F20" stroke-linecap="round" stroke-linejoin="round"/>
<path d="M170.683 204.125H143.309" stroke="#231F20" stroke-linecap="round" stroke-linejoin="round"/>
<path d="M200.531 201.569H224.308C224.647 201.569 224.972 201.703 225.212 201.943C225.452 202.183 225.586 202.508 225.586 202.847C225.586 203.186 225.452 203.511 225.212 203.75C224.972 203.99 224.647 204.125 224.308 204.125H200.206" stroke="#231F20" stroke-linecap="round" stroke-linejoin="round"/>
<path d="M143.1 201.569H170.182" stroke="#231F20" stroke-linecap="round" stroke-linejoin="round"/>
<path d="M111.362 175.092H98.3444C98.3444 175.092 94.747 179.499 94.747 188.176C94.747 196.853 98.3444 201.568 98.3444 201.568H117.075" stroke="#231F20" stroke-linecap="round" stroke-linejoin="round"/>
<path d="M172.766 172.227H224.308C224.666 172.259 225 172.423 225.243 172.688C225.486 172.953 225.62 173.3 225.62 173.66C225.62 174.019 225.486 174.366 225.243 174.631C225 174.896 224.666 175.06 224.308 175.092H176.071" stroke="#231F20" stroke-linecap="round" stroke-linejoin="round"/>
<path d="M110.745 167.886C110.745 167.886 111.919 184.579 114.007 191.404C116.094 198.23 119.73 208.482 122.524 227.213C125.317 245.944 124.92 284.286 125.317 286.352C125.713 288.418 146.951 287.785 146.906 285.757C146.862 283.73 146.02 235.708 144.752 226.018C143.485 216.327 142.549 185.73 142.549 185.73L172.386 202.808L144.582 224.734C144.582 224.734 145.055 228.772 145.166 230.579L145.502 235.978C145.502 235.978 150.812 245.949 152.752 245.619C154.691 245.288 191.904 214.922 194.62 212.95C197.51 210.749 199.511 207.581 200.256 204.026C201.077 200.29 200.3 197.701 196.769 193.685C193.237 189.669 164.48 165.077 164.48 165.077" stroke="#231F20" stroke-linejoin="round"/>
<path d="M146.615 267.925H178.104C178.104 267.925 182.721 262.564 182.721 252.108C182.721 241.652 178.104 236.027 178.104 236.027H165.769" stroke="#231F20" stroke-linecap="round" stroke-linejoin="round"/>
<path d="M124.854 265.368H49.9973C49.6583 265.368 49.3332 265.503 49.0935 265.743C48.8538 265.982 48.7192 266.308 48.7192 266.647C48.7192 266.985 48.8538 267.311 49.0935 267.55C49.3332 267.79 49.6583 267.925 49.9973 267.925H124.92" stroke="#231F20" stroke-linecap="round" stroke-linejoin="round"/>
<path d="M162.007 238.886H175.956C175.956 238.886 179.553 243.294 179.553 251.976C179.553 260.658 175.956 265.368 175.956 265.368H146.438" stroke="#231F20" stroke-linecap="round" stroke-linejoin="round"/>
<path d="M123.493 236.027H49.9972C49.6334 236.05 49.2919 236.21 49.0423 236.476C48.7927 236.742 48.6537 237.093 48.6537 237.457C48.6537 237.822 48.7927 238.172 49.0423 238.438C49.2919 238.704 49.6334 238.864 49.9972 238.887H123.747" stroke="#231F20" stroke-linecap="round" stroke-linejoin="round"/>
<path d="M57.159 238.589C59.1499 242.738 60.1513 247.292 60.0842 251.893C60.1695 256.565 58.9872 261.172 56.6631 265.225" stroke="#231F20" stroke-miterlimit="10"/>
<path d="M159.583 253.866H171.78" stroke="#231F20" stroke-miterlimit="10" stroke-linecap="round"/>
<path d="M67.885 253.866H124.54" stroke="#231F20" stroke-miterlimit="10" stroke-linecap="round"/>
<path d="M91.3865 267.946H45.7883C45.7883 267.946 41.1828 273.577 41.1828 284.033C41.1828 294.489 45.7994 299.849 45.7994 299.849H91.5242" stroke="#231F20" stroke-linejoin="round"/>
<path d="M78.545 206.907C80.5359 211.055 81.5373 215.61 81.4702 220.211C81.5515 224.875 80.3693 229.474 78.0491 233.521" stroke="#231F20" stroke-miterlimit="10"/>
<path d="M144.003 217.319H148.399" stroke="#231F20" stroke-miterlimit="10" stroke-linecap="round"/>
<path d="M94.6093 217.319H120.838" stroke="#231F20" stroke-miterlimit="10" stroke-linecap="round"/>
<path d="M180.01 121.991C180.01 121.991 171.548 124.872 167.962 128.601C164.376 132.331 166.188 135.901 166.188 135.901C166.188 135.901 161.781 130.673 156.106 129.428C150.432 128.183 141.915 127.566 141.915 127.566L140.125 129.984L166.155 137.851L167.962 136.545L181.112 120.663" fill="white"/>
<path d="M180.01 121.991C180.01 121.991 171.548 124.872 167.962 128.601C164.376 132.331 166.188 135.901 166.188 135.901C166.188 135.901 161.781 130.673 156.106 129.428C150.432 128.183 141.915 127.566 141.915 127.566L140.125 129.984L166.155 137.851L167.962 136.545L181.112 120.663" stroke="#231F20" stroke-linecap="round" stroke-linejoin="round"/>
<path d="M130.545 287.404L129.421 292.605" stroke="#231F20" stroke-linejoin="round"/>
<path d="M143.75 292.253L142.775 286.936" stroke="#231F20" stroke-linejoin="round"/>
<path d="M132.925 74.5966L123.675 70.8009" stroke="#231F20" stroke-linecap="round" stroke-linejoin="round"/>
<path d="M110.15 130.441L108.79 133.257L108.613 133.615C108.613 133.615 105.225 128.756 100.146 127.125C95.0666 125.494 91.8824 126.916 91.8824 126.916C93.3698 122.272 95.601 118.217 99.876 110.824C104.151 103.431 106.834 99.1777 111.219 96.8033" fill="#2DBFAC"/>
<path d="M163.439 163.148C165.053 164.344 166.26 165.176 165.692 165.379C164.348 165.87 151.788 165.335 138.985 165.716C126.182 166.096 107.583 170.046 107.583 168.36C107.583 168.162 107.622 167.467 107.699 166.399" fill="#2DBFAC"/>
<path d="M102.25 106.797C105.28 101.839 107.704 98.7039 111.225 96.7978C115.213 94.6383 119.047 94.1535 123.179 93.3767C123.542 93.2937 123.918 93.2937 124.281 93.3767C124.512 93.4594 124.567 93.5255 124.832 94.1204C125.846 96.2029 129.035 100.902 137.255 100.676C144.416 100.483 146.482 98.2302 147.066 96.8199C147.342 96.1533 147.243 96.1588 147.441 95.9439C147.639 95.7291 147.81 95.8503 148.411 96.0706C150.614 96.8805 155.991 98.9078 159.908 100.863" fill="#2DBFAC"/>
</svg>
