<svg width="300" height="328" viewBox="0 0 300 328" fill="none" xmlns="http://www.w3.org/2000/svg">
<path opacity="0.1" d="M212.942 51.2779C240.487 71.2149 276.075 84.745 291.269 110.615C306.22 136.508 300.524 174.938 285.099 213.634C269.905 252.323 244.982 291.487 207.719 311.661C170.457 331.835 120.617 333.267 88.3284 310.945C56.0401 288.622 41.5735 242.583 26.1428 203.183C10.9545 163.546 -4.95 130.795 1.45697 103.261C7.86394 75.7268 36.5879 53.1785 64.3587 33.4783C92.1296 13.5412 119.184 -3.79012 142.449 0.721755C165.713 5.23363 185.171 31.3408 212.942 51.2779Z" fill="#2DBFAC"/>
<path d="M296.695 182.866H54.3874V194.264H86.918V299.668H97.936V194.264H252.932V299.668H263.95V194.264H296.695V182.866Z" fill="white"/>
<path d="M168.512 157.48H155.544V170.928C155.544 178.547 156.899 182.866 163.725 182.866H168.512" fill="#231F20"/>
<path d="M168.512 157.48H155.544V170.928C155.544 178.547 156.899 182.866 163.725 182.866H168.512" stroke="#231F20" stroke-linecap="round" stroke-linejoin="round"/>
<path d="M176.423 171.76C177.299 171.725 178.127 171.352 178.734 170.72C179.341 170.088 179.68 169.246 179.68 168.369C179.68 167.493 179.341 166.65 178.734 166.018C178.127 165.386 177.299 165.014 176.423 164.978V162.433C177.998 162.433 179.508 163.059 180.622 164.173C181.736 165.286 182.362 166.797 182.362 168.372C182.362 169.947 181.736 171.457 180.622 172.571C179.508 173.685 177.998 174.311 176.423 174.311" fill="#231F20"/>
<path d="M176.423 171.76C177.299 171.725 178.127 171.352 178.734 170.72C179.341 170.088 179.68 169.246 179.68 168.369C179.68 167.493 179.341 166.65 178.734 166.018C178.127 165.386 177.299 165.014 176.423 164.978V162.433C177.998 162.433 179.508 163.059 180.622 164.173C181.736 165.286 182.362 166.797 182.362 168.372C182.362 169.947 181.736 171.457 180.622 172.571C179.508 173.685 177.998 174.311 176.423 174.311" stroke="#231F20" stroke-linecap="round" stroke-linejoin="round"/>
<path d="M163.554 157.48H176.522V170.928C176.522 178.547 175.167 182.866 168.347 182.866H163.554" fill="#231F20"/>
<path d="M163.554 157.48H176.522V170.928C176.522 178.547 175.167 182.866 168.347 182.866H163.554" stroke="#231F20" stroke-linecap="round" stroke-linejoin="round"/>
<path d="M68.9587 87.7091C68.9587 87.7091 66.722 84.4422 64.3311 77.3907C61.9402 70.3392 62.8437 45.141 62.8437 45.141C62.8144 44.2415 62.4511 43.3852 61.8245 42.7391C61.0808 42.0835 60.0121 39.7091 59.4722 37.6708L57.8525 31.5173L55.5498 26.8622C55.5498 26.8622 53.2415 23.094 54.2221 22.455C55.2027 21.8159 57.3127 26.0138 57.3127 26.0138C57.3127 26.0138 59.676 30.3108 60.1388 30.2943C60.6015 30.2777 59.037 26.774 58.453 24.7853C57.8691 22.7965 56.1833 17.9596 57.5771 17.8054C58.9709 17.6511 59.5218 20.7692 60.1773 22.9563C60.8329 25.1433 62.0284 28.7683 62.5793 28.7573C63.1302 28.7462 61.4775 23.5733 60.9927 21.9316C60.5079 20.2899 58.7119 16.2243 60.001 15.7064C61.2901 15.1886 62.7556 19.3259 63.2018 20.7472C63.648 22.1685 65.0528 27.5177 65.5266 27.4406C66.0004 27.3635 65.3613 21.871 65.0583 20.2293C64.7553 18.5876 64.0336 15.9158 65.185 15.8662C66.3364 15.8166 66.6064 18.1469 67.4658 21.2209L69.482 28.3826C69.482 28.3826 70.2643 32.597 71.008 32.4593C71.7518 32.3216 73.4981 28.3992 74.2694 27.1541C75.0406 25.9091 76.7374 25.0552 77.0569 25.8816C77.3764 26.7079 75.5585 29.3247 75.294 30.465C75.0296 31.6054 74.5063 33.6878 74.038 35.919C73.5697 38.1501 72.1098 40.0287 71.4873 41.0589C70.8648 42.089 70.1156 42.8438 70.2588 43.9345C70.2588 43.9345 73.4871 69.9481 74.7927 74.0798C76.0984 78.2116 81.4035 83.1531 81.4035 83.1531" fill="white"/>
<path d="M127.723 283.427L125.547 291.614L131.282 292.737L139.441 291.586L139.176 284.358" fill="white"/>
<path d="M118.771 95.0139C118.099 93.7964 118.127 91.4881 118.127 91.4881L117.443 91.3338C127.564 86.4033 126.379 64.8906 126.379 64.8906L102.536 60.0427L100.911 67.4468C100.911 67.4468 100.751 68.7855 100.691 70.8404C100.189 70.8404 97.3852 70.8404 97.9361 74.0962C98.487 77.6661 100.883 78.0902 100.883 78.0902C100.883 78.0902 100.977 77.6606 101.054 78.2335C101.605 82.244 102.806 86.497 105.434 89.2515C105.434 90.4249 105.39 92.8764 104.74 93.4273C103.869 94.1655 100.702 93.7193 100.702 93.7193C100.702 93.7193 90.8461 104.186 111.99 107.839C133.133 111.491 124 97.5002 124 97.5002C124 97.5002 119.438 96.2369 118.771 95.0139Z" fill="white"/>
<path d="M110.221 75.6714C110.553 75.6714 110.822 75.4026 110.822 75.0709C110.822 74.7393 110.553 74.4705 110.221 74.4705C109.889 74.4705 109.621 74.7393 109.621 75.0709C109.621 75.4026 109.889 75.6714 110.221 75.6714Z" fill="#231F20" stroke="#231F20" stroke-linecap="round" stroke-linejoin="round"/>
<path d="M119.454 76.0464C119.786 76.0464 120.055 75.7776 120.055 75.4459C120.055 75.1143 119.786 74.8455 119.454 74.8455C119.123 74.8455 118.854 75.1143 118.854 75.4459C118.854 75.7776 119.123 76.0464 119.454 76.0464Z" fill="#231F20" stroke="#231F20" stroke-linecap="round" stroke-linejoin="round"/>
<path d="M108.403 63.6509C108.403 63.6509 120.016 67.5788 127.338 65.9757C134.659 64.3726 135.827 53.7347 130.737 50.3522C125.646 46.9696 119.366 51.0518 119.366 51.0518C119.366 51.0518 116.121 43.7138 108.348 46.1598C100.575 48.6058 101.522 54.4233 101.522 54.4233C101.522 54.4233 93.9255 54.8971 93.9255 62.5766C93.9255 70.2562 102.299 72.7077 105.324 70.3994C108.348 68.0911 108.403 63.6509 108.403 63.6509Z" fill="#231F20" stroke="#231F20" stroke-miterlimit="10"/>
<path d="M139.43 136.865C139.43 136.865 142.113 140.017 142.867 142.055C143.622 144.093 134.053 163.182 133.91 164.124L137.838 176.795C138.94 174.889 142.118 165.066 142.118 165.066C142.036 164.471 155.213 145.696 154.563 140.975C154.166 138.119 153.189 135.375 151.693 132.91" fill="white"/>
<path d="M124.368 290.732C124.368 290.732 124.197 290.814 124.197 294.324C124.197 297.833 124.958 299.689 124.958 299.689H143.754C143.754 299.689 152.569 299.689 153.274 299.689C153.979 299.689 157.549 299.398 158.232 296.935C158.915 294.472 157.422 294.55 150.442 292.693C143.462 290.836 142.289 290.137 140.741 290.6C137.722 291.487 124.368 290.732 124.368 290.732Z" fill="#231F20" stroke="#231F20" stroke-linejoin="round"/>
<path d="M116.617 292.302L115.642 286.986L103.285 287.576L102.288 292.655" fill="white"/>
<path d="M101.302 299.591H118.127C118.127 299.591 120.011 296.935 119.08 294.759C118.149 292.583 114.573 290.776 110.238 290.776C105.902 290.776 101.363 292.153 100.492 294.418C99.6218 296.682 101.302 299.591 101.302 299.591Z" fill="#231F20" stroke="#231F20" stroke-linejoin="round"/>
<path d="M87.177 166.543C87.177 166.543 88.1135 174.255 90.0527 190.325C91.9919 206.395 92.3169 207.563 95.1044 226.31C97.892 245.057 97.5725 284.584 97.9581 286.65C98.3437 288.716 119.592 288.082 119.548 286.055C119.509 284.204 115.846 201.409 115.212 186.986C115.152 185.582 115.113 184.816 115.113 184.816C115.113 184.816 126.274 220.134 127.073 228.778C127.872 237.421 122.666 281.862 122.666 281.862C122.666 281.862 122.021 284.435 132.334 285.449C142.647 286.462 143.843 285.295 143.843 285.295C143.843 285.295 150.938 235.603 149.754 224.04C148.569 212.477 134.527 164.4 134.527 164.4L87.177 166.543Z" fill="white"/>
<path d="M284.128 81.9487L229.814 43.7621L227.733 46.7229L282.046 84.9096L284.128 81.9487Z" fill="white"/>
<path d="M229.087 45.2213L227.839 44.3436L223.989 49.8192L225.237 50.6969L229.087 45.2213Z" fill="#231F20"/>
<path d="M248.79 139.429L287.823 83.9116L284.862 81.8299L245.829 137.347L248.79 139.429Z" fill="white"/>
<path d="M228.515 53.3379L218.69 46.4305L211.644 56.4533L221.468 63.3606L228.515 53.3379Z" fill="white"/>
<path d="M222.55 87.2022L188.906 63.5521L211.769 56.3408L221.597 63.2491L222.55 87.2022Z" fill="white"/>
<path d="M218.594 79.1258C221.988 83.208 223.431 86.9155 222.004 88.9483C219.591 92.3749 209.884 89.7196 200.359 83.0096C190.834 76.2996 185.039 68.0857 187.446 64.6536C189.099 62.2958 194.206 62.8136 200.332 65.5516" fill="white"/>
<path d="M203.714 67.4906C202.951 67.9637 202.293 68.588 201.781 69.3251C201.212 70.1484 200.834 71.0887 200.675 72.077C200.517 73.0652 200.581 74.0765 200.864 75.0366C201.147 75.9968 201.641 76.8815 202.31 77.6259C202.979 78.3703 203.806 78.9557 204.731 79.339C205.655 79.7223 206.654 79.8938 207.654 79.8411C208.653 79.7884 209.628 79.5128 210.507 79.0343C211.387 78.5559 212.148 77.8869 212.735 77.0762C213.322 76.2655 213.72 75.3338 213.9 74.3493C213.9 74.3493 210.986 72.0079 209.113 70.5921C207.397 69.4199 205.592 68.383 203.714 67.4906Z" fill="#2DBFAC"/>
<path d="M283.881 91.8021L278.802 88.9485L282.234 78.3822L289.996 84.6404L283.881 91.8021Z" fill="white"/>
<path d="M233.072 45.3334L226.929 40.6562L225.949 48.3193L233.072 45.3334Z" fill="white"/>
<path d="M265.079 145.218H292.211C292.211 145.218 294.965 148.567 294.965 154.787C294.965 161.006 292.211 164.196 292.211 164.196H264.991" fill="#2DBFAC"/>
<path d="M191.727 164.196C191.727 164.196 194.839 161.006 194.839 154.787C194.839 148.567 192.085 145.218 192.085 145.218H264.875C264.875 145.218 267.685 148.567 267.685 154.787C267.685 161.006 264.875 164.196 264.875 164.196H191.727Z" fill="#2DBFAC"/>
<path d="M188.73 146.92H263.685C263.685 146.92 265.828 149.542 265.828 154.71C265.828 159.877 263.685 162.676 263.685 162.676H188.73C188.528 162.676 188.335 162.756 188.192 162.898C188.05 163.041 187.97 163.234 187.97 163.436C187.97 163.637 188.05 163.831 188.192 163.973C188.335 164.116 188.528 164.196 188.73 164.196H264.952C264.952 164.196 267.707 161.006 267.707 154.787C267.707 148.567 264.952 145.218 264.952 145.218H188.73C188.516 145.235 188.316 145.332 188.171 145.49C188.025 145.647 187.944 145.854 187.944 146.069C187.944 146.283 188.025 146.49 188.171 146.648C188.316 146.805 188.516 146.903 188.73 146.92V146.92Z" fill="#2DBFAC"/>
<path d="M217.823 164.141H190.691C190.691 164.141 187.937 167.49 187.937 173.71C187.937 179.93 190.691 183.119 190.691 183.119H217.911" fill="white"/>
<path d="M291.175 183.114C291.175 183.114 288.063 179.924 288.063 173.705C288.063 167.485 290.817 164.135 290.817 164.135H218.016C218.016 164.135 215.212 167.485 215.212 173.705C215.212 179.924 218.016 183.114 218.016 183.114H291.175Z" fill="white"/>
<path d="M294.15 165.838H219.228C219.228 165.838 217.09 168.46 217.09 173.622C217.09 178.784 219.228 181.593 219.228 181.593H294.15C294.352 181.593 294.545 181.674 294.688 181.816C294.83 181.959 294.91 182.152 294.91 182.354C294.91 182.555 294.83 182.749 294.688 182.891C294.545 183.034 294.352 183.114 294.15 183.114H217.939C217.939 183.114 215.184 179.924 215.184 173.705C215.184 167.485 217.939 164.135 217.939 164.135H294.15C294.356 164.153 294.548 164.244 294.693 164.392C294.837 164.539 294.924 164.734 294.938 164.94C294.945 165.161 294.867 165.377 294.721 165.544C294.575 165.71 294.371 165.815 294.15 165.838V165.838Z" fill="white"/>
<path d="M223.767 170.581V178.547L226.599 175.715L229.199 178.316V170.581" fill="#2DBFAC"/>
<path d="M261.774 128.828H285.104C285.104 128.828 287.468 131.709 287.468 137.059C287.468 142.408 285.104 145.151 285.104 145.151H261.697" fill="white"/>
<path d="M198.69 145.151C198.69 145.151 201.368 142.397 201.368 137.059C201.368 131.72 199.004 128.828 199.004 128.828H261.609C261.609 128.828 264.021 131.709 264.021 137.059C264.021 142.408 261.609 145.151 261.609 145.151H198.69Z" fill="white"/>
<path d="M196.09 130.294H260.545C260.545 130.294 262.385 132.547 262.385 136.993C262.385 141.438 260.545 143.846 260.545 143.846H196.09C195.927 143.861 195.776 143.936 195.666 144.057C195.555 144.178 195.494 144.335 195.494 144.499C195.494 144.662 195.555 144.82 195.666 144.94C195.776 145.061 195.927 145.136 196.09 145.151H261.647C261.647 145.151 264.01 142.397 264.01 137.059C264.01 131.72 261.647 128.828 261.647 128.828H196.09C195.896 128.828 195.709 128.905 195.572 129.043C195.434 129.18 195.357 129.367 195.357 129.561C195.357 129.755 195.434 129.942 195.572 130.079C195.709 130.216 195.896 130.294 196.09 130.294V130.294Z" fill="white"/>
<path d="M38.1249 251.938C38.1249 251.938 32.357 251.74 26.5945 259.75C20.8321 267.76 11.6486 271.792 6.89987 264.79C2.15111 257.788 6.78416 251.216 16.7665 248.368C26.7488 245.52 38.1249 251.938 38.1249 251.938Z" fill="#2DBFAC"/>
<path d="M37.3096 243.911C37.3096 243.911 44.5209 239.928 51.5118 249.64C58.5027 259.353 69.7576 258.56 72.2036 254.422C74.6496 250.285 70.9861 242.253 58.8773 238.793C46.7685 235.334 37.3096 243.911 37.3096 243.911Z" fill="#2DBFAC"/>
<path d="M36.6705 237.724C32.6526 236.101 28.199 235.906 24.0549 237.173C16.8932 239.245 3.93055 237.322 3.57797 231.664C3.2254 226.007 10.3926 221.748 20.6559 223.269C30.9191 224.789 36.6705 237.724 36.6705 237.724Z" fill="#2DBFAC"/>
<path d="M37.9817 218.437C37.9817 218.437 33.1007 207.899 28.0655 204.797C23.0302 201.696 12.1775 199.558 9.6599 206.417C7.89151 211.243 14.2544 217.297 23.6142 216.944C32.974 216.592 37.9817 218.437 37.9817 218.437Z" fill="#2DBFAC"/>
<path d="M39.9428 211.281C39.9428 211.281 44.2068 202.076 48.603 199.371C52.9991 196.666 62.4801 194.798 64.6782 200.787C66.2263 205.001 60.6677 210.29 52.4923 209.981C44.317 209.673 39.9428 211.281 39.9428 211.281Z" fill="#2DBFAC"/>
<path d="M37.3096 230.904C37.3096 230.904 44.2675 226.795 52.0241 226.745C59.7808 226.695 65.3449 227.544 66.5293 222.767C67.7138 217.991 61.4004 215.088 51.9525 216.515C42.5046 217.942 37.3096 230.904 37.3096 230.904Z" fill="#2DBFAC"/>
<path d="M39.8822 200.897C39.8822 200.897 35.2381 198.522 31.1229 192.281C27.0077 186.039 25.0079 173.104 30.3296 171.082C35.6513 169.06 41.8545 174.635 43.419 184.899C44.9836 195.162 39.8822 200.897 39.8822 200.897Z" fill="#2DBFAC"/>
<path d="M222.048 48.4793C222.874 47.8237 223.365 46.8266 223.337 45.3226C223.337 43.389 219.999 41.6481 221.541 39.136C222.985 36.7837 229.199 37.0811 228.516 41.6536" stroke="#231F20" stroke-linecap="round" stroke-linejoin="round"/>
<path d="M280.377 83.5493L228.654 47.1844" stroke="#231F20" stroke-linecap="round" stroke-linejoin="round"/>
<path d="M232.521 45.4769L281.611 79.9908" stroke="#231F20" stroke-linecap="round" stroke-linejoin="round"/>
<path d="M227.37 47.5757L225.128 50.7599" stroke="#231F20" stroke-linecap="round" stroke-linejoin="round"/>
<path d="M223.916 49.8342L226.097 46.7272" stroke="#231F20" stroke-linecap="round" stroke-linejoin="round"/>
<path d="M251.879 128.646L279.54 89.3009" stroke="#231F20" stroke-linecap="round" stroke-linejoin="round"/>
<path d="M282.724 91.0693L256.182 128.828" stroke="#231F20" stroke-linecap="round" stroke-linejoin="round"/>
<path d="M228.518 53.1886L218.693 46.2812L211.647 56.304L221.471 63.2114L228.518 53.1886Z" stroke="#231F20" stroke-linecap="round" stroke-linejoin="round"/>
<path d="M188.906 63.4088L211.768 56.192L221.596 63.1003L222.549 87.0589" stroke="#231F20" stroke-linecap="round" stroke-linejoin="round"/>
<path d="M188.928 63.4032C191.286 62.4612 195.495 63.238 200.354 65.403" stroke="#231F20" stroke-linecap="round" stroke-linejoin="round"/>
<path d="M188.851 63.4253H188.906" stroke="#231F20" stroke-linecap="round" stroke-linejoin="round"/>
<path d="M222.533 86.9817C222.54 87.6298 222.347 88.2643 221.982 88.7997C219.569 92.2263 209.862 89.5709 200.337 82.861C190.812 76.151 185.017 67.9371 187.424 64.505C187.777 64.0106 188.265 63.6282 188.829 63.4032" stroke="#231F20" stroke-linecap="round" stroke-linejoin="round"/>
<path d="M218.594 78.9823C221.139 82.0398 222.588 84.8934 222.55 86.9813" stroke="#231F20" stroke-linecap="round" stroke-linejoin="round"/>
<path d="M200.332 65.403C203.404 66.8031 206.337 68.4909 209.091 70.4437C212.613 72.8689 215.807 75.739 218.594 78.9827" stroke="#231F20" stroke-linecap="round" stroke-linejoin="round"/>
<path d="M283.881 91.6587L278.802 88.7995L282.234 78.2388L289.996 84.4915L283.881 91.6587Z" stroke="#231F20" stroke-linecap="round" stroke-linejoin="round"/>
<path d="M226.174 46.4081L225.948 48.1709L233.072 45.1851L226.929 40.5134L226.174 46.4081Z" stroke="#231F20" stroke-linecap="round" stroke-linejoin="round"/>
<path d="M261.773 128.828H285.104C285.104 128.828 287.467 131.709 287.467 137.058C287.467 142.408 285.104 145.151 285.104 145.151H261.696" stroke="#231F20" stroke-linejoin="round"/>
<path d="M196.09 130.293H260.545C260.545 130.293 262.385 132.547 262.385 136.992C262.385 141.438 260.545 143.846 260.545 143.846H196.09C195.927 143.861 195.776 143.936 195.665 144.056C195.555 144.177 195.494 144.335 195.494 144.498C195.494 144.662 195.555 144.819 195.665 144.94C195.776 145.061 195.927 145.136 196.09 145.151H261.647C261.647 145.151 264.01 142.397 264.01 137.058C264.01 131.72 261.647 128.828 261.647 128.828H196.09C195.895 128.828 195.709 128.905 195.572 129.043C195.434 129.18 195.357 129.366 195.357 129.561C195.357 129.755 195.434 129.941 195.572 130.079C195.709 130.216 195.895 130.293 196.09 130.293V130.293Z" stroke="#231F20" stroke-linecap="round" stroke-linejoin="round"/>
<path d="M188.73 146.92H263.685C263.685 146.92 265.828 149.542 265.828 154.709C265.828 159.877 263.685 162.675 263.685 162.675H188.73C188.528 162.675 188.335 162.755 188.192 162.898C188.05 163.041 187.969 163.234 187.969 163.436C187.969 163.637 188.05 163.831 188.192 163.973C188.335 164.116 188.528 164.196 188.73 164.196H264.952C264.952 164.196 267.707 161.006 267.707 154.786C267.707 148.567 264.952 145.217 264.952 145.217H188.73C188.516 145.235 188.316 145.332 188.171 145.489C188.025 145.647 187.944 145.854 187.944 146.068C187.944 146.283 188.025 146.49 188.171 146.647C188.316 146.805 188.516 146.902 188.73 146.92V146.92Z" stroke="#231F20" stroke-linecap="round" stroke-linejoin="round"/>
<path d="M199.781 130.249C200.801 132.372 201.315 134.703 201.279 137.059C201.324 139.445 200.718 141.799 199.527 143.868" stroke="#231F20" stroke-miterlimit="10"/>
<path d="M192.999 146.87C194.183 149.339 194.778 152.049 194.74 154.786C194.79 157.563 194.085 160.301 192.702 162.708" stroke="#231F20" stroke-miterlimit="10"/>
<path d="M217.823 164.196H190.691C190.691 164.196 187.936 167.545 187.936 173.765C187.936 179.985 190.691 183.174 190.691 183.174H217.911" stroke="#231F20" stroke-linejoin="round"/>
<path d="M294.15 165.898H219.228C219.228 165.898 217.09 168.52 217.09 173.682C217.09 178.844 219.228 181.654 219.228 181.654H294.15C294.352 181.654 294.545 181.734 294.688 181.877C294.83 182.019 294.91 182.213 294.91 182.414C294.91 182.616 294.83 182.809 294.688 182.952C294.545 183.094 294.352 183.174 294.15 183.174H217.939C217.939 183.174 215.184 179.985 215.184 173.765C215.184 167.545 217.939 164.196 217.939 164.196H294.15C294.355 164.214 294.547 164.304 294.691 164.45C294.835 164.597 294.923 164.79 294.938 164.995C294.946 165.217 294.869 165.435 294.723 165.602C294.576 165.77 294.372 165.876 294.15 165.898V165.898Z" stroke="#231F20" stroke-linecap="round" stroke-linejoin="round"/>
<path d="M289.908 165.849C288.724 168.318 288.128 171.027 288.167 173.765C288.118 176.539 288.82 179.275 290.2 181.681" stroke="#231F20" stroke-miterlimit="10"/>
<path d="M100.784 70.8404C100.784 70.8404 97.3741 70.5264 97.9305 74.0962C98.4869 77.6661 100.878 78.0903 100.878 78.0903" stroke="#231F20" stroke-linecap="round" stroke-linejoin="round"/>
<path d="M127.409 284.6L125.547 291.613L131.282 292.737L139.441 291.586L139.226 285.719" stroke="#231F20" stroke-linejoin="round"/>
<path d="M103.23 287.84L102.288 292.654" stroke="#231F20" stroke-linejoin="round"/>
<path d="M116.617 292.302L115.68 287.19" stroke="#231F20" stroke-linejoin="round"/>
<path d="M86.9179 194.506V299.915H97.9359V286.65" stroke="#231F20" stroke-linecap="round" stroke-linejoin="round"/>
<path d="M252.932 194.815V299.916H263.95V194.815" stroke="#231F20" stroke-linecap="round" stroke-linejoin="round"/>
<path d="M137.997 176.487C139.27 173.771 142.118 165.061 142.118 165.061C142.035 164.466 155.213 145.691 154.563 140.97C154.166 138.114 153.189 135.37 151.693 132.905" stroke="#231F20" stroke-miterlimit="10"/>
<path d="M115.554 75.3298C115.554 75.3298 116.551 79.8196 115.983 80.6625C115.416 81.5054 113.537 80.9269 113.537 80.9269" stroke="#231F20" stroke-linecap="round" stroke-linejoin="round"/>
<path d="M118.143 85.1913C118.143 85.318 115.713 86.3813 113.102 85.902C110.59 85.4393 108.97 84.2163 109.147 84.2493" stroke="#231F20" stroke-miterlimit="10" stroke-linecap="round"/>
<path d="M139.43 136.865C139.43 136.865 142.113 140.017 142.867 142.055C143.49 143.708 137.154 156.863 134.786 162.058" stroke="#231F20" stroke-miterlimit="10"/>
<path d="M115.548 194.506H117.923" stroke="#231F20" stroke-linecap="round" stroke-linejoin="round"/>
<path d="M89.1876 183.114H54.3873V194.506H90.5649" stroke="#231F20" stroke-linecap="round" stroke-linejoin="round"/>
<path d="M142.955 194.506H296.695V183.114H139.854" stroke="#231F20" stroke-linecap="round" stroke-linejoin="round"/>
<path d="M118.044 91.4878C118.044 91.4878 118.016 93.7961 118.683 95.0136C119.052 95.6912 120.65 96.3788 122 96.5" stroke="#231F20" stroke-linecap="round" stroke-linejoin="round"/>
<path d="M105.335 89.2461C105.335 89.2461 105.505 92.7057 104.64 93.4384C104.139 93.8626 102.872 93.8957 101.886 93.8461" stroke="#231F20" stroke-miterlimit="10"/>
<path d="M101.026 78.2331C101.913 84.9596 104.745 92.3361 112.904 92.3361C127.883 92.3361 126.368 64.8903 126.368 64.8903" stroke="#231F20" stroke-linecap="round" stroke-linejoin="round"/>
<path d="M49.9305 299.69H31.3707C24.4128 299.69 23.9556 266.553 23.9556 266.553H57.3621C57.3621 266.553 56.8884 299.69 49.9305 299.69Z" stroke="#231F20" stroke-linecap="round" stroke-linejoin="round"/>
<path d="M287.082 299.684H12.9265" stroke="#231F20" stroke-linejoin="round"/>
<path d="M68.9586 87.7088C68.9586 87.7088 66.7219 84.442 64.331 77.3905C61.9401 70.339 62.8436 45.1408 62.8436 45.1408C62.8143 44.2413 62.451 43.3849 61.8244 42.7389C61.0807 42.0833 60.012 39.7089 59.4721 37.6706L57.8524 31.517L55.5497 26.8619C55.5497 26.8619 53.2414 23.0938 54.222 22.4547C55.2026 21.8157 57.3126 26.0135 57.3126 26.0135C57.3126 26.0135 59.6759 30.3105 60.1386 30.294C60.6014 30.2775 59.0368 26.7738 58.4529 24.785C57.8689 22.7963 56.1832 17.9594 57.577 17.8051C58.9708 17.6509 59.5216 20.7689 60.1772 22.956C60.8328 25.1431 62.0283 28.768 62.5792 28.757C63.1301 28.746 61.4774 23.573 60.9926 21.9313C60.5078 20.2897 58.7118 16.224 60.0009 15.7062C61.29 15.1883 62.7555 19.3256 63.2017 20.7469C63.6479 22.1683 65.0527 27.5175 65.5265 27.4403C66.0002 27.3632 65.3612 21.8708 65.0582 20.2291C64.7552 18.5874 64.0335 15.9155 65.1849 15.8659C66.3363 15.8164 66.6062 18.1467 67.4656 21.2207L69.4819 28.3824C69.4819 28.3824 70.2642 32.5968 71.0079 32.459C71.7516 32.3213 73.498 28.3989 74.2692 27.1539C75.0405 25.9089 76.7373 25.055 77.0568 25.8813C77.3763 26.7077 75.5583 29.3244 75.2939 30.4648C75.0295 31.6051 74.5061 33.6876 74.0379 35.9187C73.5696 38.1499 72.1097 40.0284 71.4872 41.0586C70.8647 42.0888 70.1155 42.8435 70.2587 43.9343C70.2587 43.9343 73.487 69.9478 74.7926 74.0796C76.0982 78.2113 80.3512 82.0842 80.3512 82.0842" stroke="#231F20" stroke-miterlimit="10"/>
<path d="M199.384 155.844H261.206" stroke="#231F20" stroke-miterlimit="10" stroke-linecap="round"/>
<path d="M220.318 170.674H267.668" stroke="#231F20" stroke-linecap="round" stroke-linejoin="round"/>
<path d="M208.006 135.577H235.534" stroke="#231F20" stroke-miterlimit="10" stroke-linecap="round"/>
<path d="M115.708 287.371C118 287.052 119.564 286.605 119.564 286.055C119.526 284.204 115.862 201.409 115.229 186.986C115.168 185.581 115.13 184.816 115.13 184.816C115.13 184.816 126.291 220.134 127.09 228.777C127.888 237.421 122.682 281.862 122.682 281.862C122.682 281.862 122.038 284.435 132.351 285.449C142.664 286.462 143.859 285.294 143.859 285.294C143.859 285.294 150.955 235.603 149.77 224.04C148.668 213.352 136.609 171.522 134.775 165.198" stroke="#231F20" stroke-linejoin="round"/>
<path d="M87.3916 168.311C87.7663 171.429 88.6477 178.673 90.0525 190.347C91.9972 206.433 92.3167 207.585 95.1042 226.332C97.8918 245.079 97.5723 284.606 97.9579 286.672C98.2389 288.181 109.582 288.253 115.708 287.393" stroke="#231F20" stroke-linejoin="round"/>
<path d="M171.349 154.709C169.118 152.864 169.145 151.668 169.195 150.688C169.239 148.837 170.374 148.126 170.396 145.73C170.4 144.822 170.197 143.925 169.801 143.107" stroke="#231F20" stroke-linecap="round" stroke-linejoin="round"/>
<path d="M162.915 154.709C162.283 154.204 161.773 153.563 161.424 152.833C161.075 152.103 160.895 151.304 160.898 150.495C160.942 148.649 161.934 147.575 161.961 145.173C161.961 144.265 161.756 143.369 161.361 142.551" stroke="#231F20" stroke-linecap="round" stroke-linejoin="round"/>
<path d="M166.859 152.478C166.182 151.986 165.644 151.326 165.3 150.563C164.955 149.8 164.814 148.96 164.892 148.126C164.936 146.281 165.878 145.372 165.906 142.942C165.909 142.034 165.706 141.138 165.311 140.32" stroke="#231F20" stroke-linecap="round" stroke-linejoin="round"/>
<path d="M37.6785 251.734C37.6785 251.734 17.3778 252.174 12.9541 256.818" stroke="#231F20" stroke-miterlimit="10" stroke-linecap="round"/>
<path d="M61.4112 244.93C55.0373 240.226 38.7692 242.407 37.1165 243.828" stroke="#231F20" stroke-miterlimit="10" stroke-linecap="round"/>
<path d="M36.4444 237.173C36.4444 237.173 24.534 229.02 14.9593 229.461" stroke="#231F20" stroke-miterlimit="10" stroke-linecap="round"/>
<path d="M55.4891 220.944C49.6275 221.076 37.6784 228.519 37.5517 230.441" stroke="#231F20" stroke-miterlimit="10" stroke-linecap="round"/>
<path d="M38.1742 218.438C38.1742 218.438 26.6053 209.816 17.0197 209.893" stroke="#231F20" stroke-miterlimit="10" stroke-linecap="round"/>
<path d="M39.6673 201.739C39.6673 201.739 40.8462 187.35 35.7173 179.268" stroke="#231F20" stroke-miterlimit="10" stroke-linecap="round"/>
<path d="M57.2079 202.577C51.3463 202.709 39.3918 210.152 39.2706 212.075" stroke="#231F20" stroke-miterlimit="10" stroke-linecap="round"/>
<path d="M41.1656 266.553C38.9954 258.919 37.5656 251.093 36.8962 243.184C35.6842 229.615 39.7002 218.476 39.7002 200.897" stroke="#231F20" stroke-linecap="round" stroke-linejoin="round"/>
<path d="M134.703 159.849C135.138 162.003 135.755 165.297 134.951 165.589C133.607 166.08 128.048 165.33 115.245 165.71C102.442 166.091 83.8439 170.041 83.8439 168.355C83.8439 167.914 84.0257 165.821 84.2902 162.747" fill="#2DBFAC"/>
<path d="M83.1554 82.2109C82.4613 81.076 81.8388 79.9522 81.1997 78.9055C81.1997 78.9055 80.9904 78.5639 80.7205 78.7897C80.4505 79.0156 78.4067 80.8611 72.815 83.4008L65.7911 86.5905C65.2402 86.8274 65.2402 86.9265 65.2402 87.191C65.236 87.4175 65.2951 87.6408 65.4109 87.8355C65.6809 88.3864 65.9619 88.9704 66.2593 89.5323" fill="#2DBFAC"/>
<path d="M134.527 158.879C134.687 159.799 134.874 160.686 135.039 161.502Z" fill="#2DBFAC"/>
<path d="M144.25 114.708C139.562 107.828 136.295 103.657 132.235 101.454V101.393C131.348 100.611 121.906 95.3333 121.707 95.5591C121.509 95.785 121.608 95.7684 121.333 96.435C120.749 97.8564 117.614 100.468 113.521 100.655C109.428 100.842 103.787 96.1321 102.778 94.0441C102.492 93.4547 102.437 93.3831 102.228 93.306C102.018 93.2288 93.9641 90.2209 91.2096 89.8353H91.1324C85.6234 87.4278 83.5135 82.591 81.2162 78.9165C81.2162 78.9165 81.0069 78.5748 80.7369 78.8007C80.467 79.0266 78.4232 80.8721 72.8315 83.4117L65.8076 86.6015C65.2567 86.8384 65.2567 86.9375 65.2567 87.2019C65.2525 87.4285 65.3116 87.6517 65.4274 87.8465C67.3446 91.9397 69.9503 95.6858 74.6164 102.137C79.4754 108.852 84.2241 113.155 86.8024 117.292C86.5985 121.297 86.4883 125.087 86.4883 128.117C86.4883 140.816 83.8716 166.68 83.8716 168.333C83.8716 169.986 102.453 166.069 115.273 165.689C128.092 165.309 133.634 166.058 134.979 165.567C136.323 165.077 134.631 160.835 134.273 156.72C133.915 152.605 129.574 144.418 131.778 128.999C131.816 128.745 131.849 128.508 131.888 128.261C133.8 130.508 136.218 133.588 137.265 135.885C137.265 135.885 138.251 137.791 138.73 137.791C139.209 137.791 142.129 136.045 147.996 134.227C153.219 132.607 153.318 132.414 153.318 132.139C153.318 131.863 149.043 121.754 144.25 114.708Z" fill="#2DBFAC"/>
</svg>
