<svg width="301" height="358" viewBox="0 0 301 358" fill="none" xmlns="http://www.w3.org/2000/svg">
<path opacity="0.1" d="M215.137 85.6516C242.301 105.313 277.408 118.683 292.386 144.168C307.136 169.702 301.518 207.601 286.301 245.76C271.323 283.915 246.745 322.536 209.993 342.431C173.24 362.325 124.09 363.733 92.2594 341.73C60.4289 319.727 46.1462 274.309 30.9345 235.454C15.951 196.371 0.266594 164.063 6.59032 136.91C12.914 109.757 41.2296 87.5259 68.6161 68.0984C96.0026 48.4318 122.688 31.3458 145.625 35.7952C168.562 40.2446 187.756 65.985 215.137 85.6516Z" fill="#2DBFAC"/>
<path d="M82.5076 62.5243C82.5076 62.5243 80.2965 59.2973 77.9387 52.3434C75.5809 45.3894 76.6511 21.4364 76.4447 20.8931C76.2383 20.3499 74.1955 19.3883 72.8754 17.3618C71.9518 15.9439 70.849 14.2923 70.6534 12.6897C70.1807 8.79983 73.2937 7.51769 76.0861 5.42065C79.5414 2.85096 81.6438 0.911451 84.1212 5.37174C86.5985 9.83203 87.1038 11.7335 85.751 14.6889C84.3982 17.6443 84.3711 19.1927 84.4471 20.1217C84.5232 21.0507 88.5108 46.3728 89.3366 49.3227C90.4232 51.6588 95.8831 58.2705 95.8831 58.2705" fill="white"/>
<path d="M160.104 217.255L158.077 223.703L163.733 224.817L171.779 223.676L171.599 218.836" fill="white"/>
<path d="M182.878 267.16H210.003C210.003 267.16 212.752 270.512 212.752 276.727C212.752 282.942 210.003 286.137 210.003 286.137H182.791" fill="white"/>
<path d="M109.541 286.137C109.541 286.137 112.654 282.948 112.654 276.727C112.654 270.506 109.91 267.16 109.91 267.16H182.709C182.709 267.16 185.513 270.512 185.513 276.727C185.513 282.942 182.709 286.137 182.709 286.137H109.541Z" fill="white"/>
<path d="M106.548 268.86H181.487C181.487 268.86 183.628 271.484 183.628 276.651C183.628 281.817 181.487 284.615 181.487 284.615H106.548C106.354 284.62 106.168 284.698 106.029 284.833C105.889 284.967 105.805 285.15 105.792 285.343C105.79 285.445 105.807 285.546 105.843 285.641C105.88 285.737 105.935 285.823 106.005 285.897C106.075 285.971 106.159 286.03 106.252 286.071C106.345 286.112 106.446 286.134 106.548 286.137H182.764C182.764 286.137 185.513 282.948 185.513 276.727C185.513 270.506 182.764 267.16 182.764 267.16H106.548C106.343 267.18 106.151 267.271 106.007 267.418C105.863 267.565 105.775 267.759 105.76 267.964C105.752 268.186 105.829 268.402 105.976 268.569C106.122 268.735 106.327 268.84 106.548 268.86V268.86Z" fill="white"/>
<path d="M179.281 286.213H210.824C210.824 286.213 214.018 290.108 214.018 297.339C214.018 304.57 210.835 308.286 210.835 308.286H179.189" fill="#2DBFAC"/>
<path d="M94.0142 308.286C94.0142 308.286 97.6324 304.575 97.6324 297.344C97.6324 290.113 94.4433 286.218 94.4433 286.218H179.069C179.069 286.218 182.329 290.113 182.329 297.344C182.329 304.575 179.069 308.286 179.069 308.286H94.0142Z" fill="#2DBFAC"/>
<path d="M90.5317 288.185H177.651C177.651 288.185 180.14 291.238 180.14 297.241C180.14 303.244 177.651 306.477 177.651 306.477H90.5317C90.3055 306.482 90.0893 306.572 89.9263 306.729C89.7633 306.886 89.6652 307.098 89.6516 307.324C89.6488 307.443 89.6692 307.561 89.7119 307.671C89.7546 307.782 89.8186 307.883 89.9003 307.968C89.9821 308.054 90.0799 308.123 90.1882 308.171C90.2966 308.219 90.4133 308.245 90.5317 308.248H179.162C179.162 308.248 182.351 304.537 182.351 297.306C182.351 290.075 179.162 286.18 179.162 286.18H90.5317C90.2936 286.203 90.0712 286.309 89.9041 286.48C89.737 286.651 89.636 286.876 89.619 287.114C89.6037 287.376 89.6901 287.634 89.8602 287.833C90.0303 288.033 90.2709 288.159 90.5317 288.185V288.185Z" fill="#2DBFAC"/>
<path d="M166.895 231.88H143.425C143.425 231.88 141.051 234.775 141.051 240.154C141.051 245.532 143.425 248.303 143.425 248.303H166.949" fill="#2DBFAC"/>
<path d="M230.278 248.287C230.278 248.287 227.589 245.527 227.589 240.137C227.589 234.748 229.963 231.863 229.963 231.863H167.058C167.058 231.863 164.613 234.775 164.613 240.154C164.613 245.532 167.036 248.303 167.036 248.303L230.278 248.287Z" fill="#2DBFAC"/>
<path d="M232.87 233.352H168.095C168.095 233.352 166.248 235.623 166.248 240.083C166.248 244.543 168.095 246.972 168.095 246.972H232.87C233.037 246.974 233.198 247.04 233.319 247.156C233.44 247.272 233.512 247.429 233.522 247.597C233.526 247.774 233.46 247.947 233.338 248.076C233.216 248.205 233.048 248.281 232.87 248.287H166.992C166.992 248.287 164.618 245.527 164.618 240.137C164.618 234.748 166.992 231.863 166.992 231.863H232.87C233.047 231.882 233.211 231.961 233.335 232.088C233.459 232.215 233.535 232.382 233.549 232.559C233.56 232.753 233.495 232.944 233.369 233.092C233.242 233.239 233.064 233.333 232.87 233.352V233.352Z" fill="#2DBFAC"/>
<path d="M138.579 308.204H107.026C107.026 308.204 103.831 312.1 103.831 319.331C103.831 326.562 107.026 330.272 107.026 330.272H138.666" fill="white"/>
<path d="M223.83 330.272C223.83 330.272 220.212 326.562 220.212 319.331C220.212 312.1 223.406 308.204 223.406 308.204H138.802C138.802 308.204 135.542 312.1 135.542 319.331C135.542 326.562 138.802 330.272 138.802 330.272H223.83Z" fill="white"/>
<path d="M227.334 310.182H140.198C140.198 310.182 137.71 313.235 137.71 319.238C137.71 325.241 140.198 328.501 140.198 328.501H227.334C227.56 328.506 227.776 328.596 227.939 328.753C228.102 328.91 228.201 329.123 228.214 329.349C228.219 329.587 228.129 329.818 227.964 329.991C227.799 330.164 227.573 330.265 227.334 330.272H138.709C138.709 330.272 135.515 326.562 135.515 319.331C135.515 312.1 138.709 308.204 138.709 308.204H227.334C227.572 308.227 227.795 308.333 227.962 308.504C228.129 308.675 228.23 308.9 228.247 309.139C228.258 309.397 228.169 309.649 227.999 309.843C227.829 310.037 227.591 310.158 227.334 310.182V310.182Z" fill="white"/>
<path d="M164.955 248.287H137.943C137.943 248.287 135.227 251.622 135.227 257.816C135.227 264.009 137.943 267.187 137.943 267.187H165.042" fill="white"/>
<path d="M237.988 267.187C237.988 267.187 234.886 264.009 234.886 257.816C234.886 251.622 237.602 248.287 237.602 248.287H165.156C165.156 248.287 162.364 251.622 162.364 257.816C162.364 264.009 165.156 267.187 165.156 267.187H237.988Z" fill="white"/>
<path d="M240.97 249.982H166.34C166.34 249.982 164.211 252.595 164.211 257.734C164.211 262.874 166.34 265.671 166.34 265.671H240.97C241.163 265.676 241.347 265.753 241.485 265.887C241.624 266.021 241.708 266.202 241.72 266.394C241.723 266.495 241.706 266.596 241.67 266.691C241.633 266.786 241.579 266.872 241.509 266.946C241.44 267.02 241.356 267.079 241.264 267.12C241.171 267.162 241.071 267.184 240.97 267.187H165.069C165.069 267.187 162.353 264.009 162.353 257.816C162.353 251.622 165.069 248.287 165.069 248.287H240.97C241.172 248.304 241.362 248.391 241.506 248.534C241.65 248.678 241.739 248.867 241.758 249.069C241.772 249.294 241.697 249.515 241.55 249.685C241.402 249.856 241.195 249.962 240.97 249.982V249.982Z" fill="white"/>
<path d="M145.479 315.696V324.964L148.771 321.672L151.797 324.693V315.696" fill="#2DBFAC"/>
<path d="M266.461 326.187L271.426 329.506L270.839 326.562L273.545 326.024L268.726 322.802" fill="#2DBFAC"/>
<path d="M226.084 267.455L212.496 274.531L241.477 330.18L255.065 323.103L226.084 267.455Z" fill="white"/>
<path d="M242.729 266.354L229.141 273.431L258.747 330.279L272.335 323.203L242.729 266.354Z" fill="white"/>
<path d="M114.876 64.3551C114.876 64.3551 118 64.7952 118.858 64.0726C119.717 63.3501 119.526 59.319 119.526 59.319L132.076 62.144C132.076 62.144 132.049 64.4203 132.712 65.621C133.375 66.8216 137.954 66.827 137.954 66.827C137.954 66.827 146.864 81.9029 126.002 78.2793C105.14 74.6556 114.876 64.3551 114.876 64.3551Z" fill="white"/>
<path d="M114.963 41.7767C114.963 41.7767 111.6 41.467 112.149 44.9875C112.697 48.5079 115.055 48.9262 115.055 48.9262" fill="white"/>
<path d="M140.214 35.9094C140.214 35.9094 141.708 62.9753 126.937 62.9753C112.165 62.9753 115.099 38.4302 115.099 38.4302L116.701 31.1285" fill="white"/>
<path d="M124.28 46.5412C124.607 46.5412 124.872 46.276 124.872 45.949C124.872 45.6219 124.607 45.3568 124.28 45.3568C123.953 45.3568 123.688 45.6219 123.688 45.949C123.688 46.276 123.953 46.5412 124.28 46.5412Z" fill="#231F20" stroke="#231F20" stroke-linecap="round" stroke-linejoin="round"/>
<path d="M133.38 46.9107C133.707 46.9107 133.972 46.6455 133.972 46.3185C133.972 45.9914 133.707 45.7263 133.38 45.7263C133.053 45.7263 132.788 45.9914 132.788 46.3185C132.788 46.6455 133.053 46.9107 133.38 46.9107Z" fill="#231F20" stroke="#231F20" stroke-linecap="round" stroke-linejoin="round"/>
<path d="M122.487 34.6869C122.487 34.6869 133.939 38.5605 141.165 36.9796C148.391 35.3986 149.531 24.908 144.512 21.5723C139.492 18.2366 133.298 22.2622 133.298 22.2622C133.298 22.2622 130.099 15.0258 122.433 17.438C114.767 19.8501 115.702 25.5871 115.702 25.5871C115.702 25.5871 108.21 26.0543 108.21 33.6276C108.21 41.2008 116.468 43.6184 119.45 41.3421C122.433 39.0657 122.487 34.6869 122.487 34.6869Z" fill="#231F20" stroke="#231F20" stroke-miterlimit="10"/>
<path d="M129.637 259.902L128.67 254.665L116.484 255.24L115.506 260.249" fill="white"/>
<path d="M114.534 267.089H131.125C131.125 267.089 132.983 264.471 132.065 262.325C131.147 260.179 127.621 258.397 123.373 258.397C119.124 258.397 114.621 259.755 113.762 261.988C112.904 264.221 114.534 267.089 114.534 267.089Z" fill="#231F20" stroke="#231F20" stroke-linejoin="round"/>
<path d="M100.468 136.698C100.468 136.698 101.392 144.304 103.304 160.151C105.216 175.998 106.624 177.15 109.378 195.638C112.132 214.125 111.747 251.916 112.127 253.953C112.507 255.99 133.461 255.36 133.418 253.361C133.38 251.541 129.827 171.082 129.202 156.859C129.142 155.479 129.104 154.718 129.104 154.718C129.104 154.718 160.43 172.103 162.396 173.733C164.363 175.363 156.589 215.603 156.589 215.603C156.589 215.603 157.49 217.461 167.661 218.461C177.831 219.46 179.01 218.309 179.01 218.309C179.01 218.309 186.713 167.159 184.812 161.601C182.91 156.044 145.191 133.645 145.191 133.645L100.468 136.698Z" fill="white"/>
<path d="M168.416 66.6804C164.037 62.4918 161.071 59.7047 161.071 59.7047L160.761 59.9547C157.328 62.7417 147.913 66.3273 147.913 66.3273C144.831 67.0642 141.631 67.1677 138.508 66.6315C136.178 66.224 135.792 65.947 135.586 66.1588C135.379 66.3707 135.488 66.3598 135.216 67.0226C134.64 68.4243 131.549 70.994 127.513 71.1841C123.476 71.3743 117.913 66.7184 116.919 64.6648C116.636 64.0835 116.582 64.0183 116.375 63.9368C115.475 64.015 114.581 64.1493 113.697 64.3389C112.17 64.5453 108.199 65.5069 105.488 65.1266C99.5502 62.8503 97.4369 57.8576 95.1116 54.0927L94.9052 53.7559C94.9052 53.7559 92.3572 56.0213 86.843 58.5258L79.1665 62.0137C81.0951 66.4196 83.692 70.1628 88.6249 76.9918C93.5579 83.8207 98.4039 88.0855 100.876 92.3121L101.028 91.3994C100.93 93.8333 100.876 96.1694 100.876 98.2664C100.876 110.789 98.2952 136.296 98.2952 137.926C98.2952 139.555 116.62 135.693 129.262 135.318C141.904 134.943 147.369 135.682 148.695 135.198C150.02 134.715 148.353 130.532 148 126.473C147.646 122.415 143.365 114.342 145.538 99.1411C146.082 95.4034 146.516 92.7359 146.886 90.8344C150.482 89.7479 154.144 87.3357 159.381 83.7012C166.292 78.8878 169.986 76.1986 173.256 72.6782C173.213 72.6945 172.805 70.8745 168.416 66.6804Z" fill="#2DBFAC"/>
<path d="M162.043 60.612C162.043 60.612 165.797 58.9821 167.356 57.5425C168.916 56.1028 177.847 32.6333 178.146 31.7477C178.445 30.8622 178.771 29.3465 178.178 26.1574C177.665 22.762 178.479 19.2993 180.449 16.4871C180.819 15.9928 180.911 15.7646 182.139 15.6179C183.367 15.4712 187.572 16.8022 189.783 19.4588C191.994 22.1155 194.737 24.1582 193.352 27.8199C192.809 29.3302 191.315 30.672 190.092 31.8238C188.327 33.4536 186.148 34.0349 185.811 34.5402C185.475 35.0454 179.868 59.7753 177.217 63.6597C175.608 66.0023 173.537 67.9915 171.132 69.5054" fill="white"/>
<path d="M156.92 222.84C156.92 222.84 156.746 222.921 156.746 226.382C156.746 229.842 157.501 231.668 157.501 231.668H176.022C176.022 231.668 184.714 231.668 185.409 231.668C186.105 231.668 189.631 231.374 190.299 228.951C190.967 226.528 189.5 226.594 182.617 224.768C175.734 222.943 174.582 222.242 173.05 222.704C170.089 223.584 156.92 222.84 156.92 222.84Z" fill="#231F20" stroke="#231F20" stroke-linejoin="round"/>
<path d="M212.302 5.40981C212.302 5.40981 216.224 2.15016 219.456 0.661589C222.689 -0.826986 226.378 0.661589 226.378 0.661589L225.454 4.39389C223.733 4.56388 222.034 4.90418 220.38 5.40981C218.348 6.12694 215.072 8.61515 215.072 8.61515L212.302 5.40981Z" fill="#2DBFAC"/>
<path d="M175.609 111.387C175.609 111.387 180.107 109.002 183.573 108.176C187.039 107.35 190.353 109.572 190.353 109.572L188.723 113.038C187.003 112.861 185.269 112.852 183.546 113.011C181.411 113.304 177.7 115.081 177.7 115.081L175.609 111.387Z" fill="#2DBFAC"/>
<path d="M226.101 126.028L235.961 127.114L234.522 131.113L224.77 129.706L226.101 126.028Z" fill="#231F20" stroke="#231F20" stroke-linejoin="round"/>
<path d="M217.778 164.519C217.778 164.519 225.438 165.785 227.453 166.991C229.469 168.197 229.697 172.358 229.697 172.358L224.808 172.75C224.808 172.75 224.563 170.196 222.923 169.311C221.282 168.425 215.214 167.279 215.214 167.279L217.778 164.519Z" fill="#231F20" stroke="#231F20" stroke-linejoin="round"/>
<path d="M207.868 87.9877C207.868 87.9877 211.074 84.2282 213.372 83.7393C215.67 83.2503 221.928 85.5919 221.928 85.5919L218.614 89.2209C218.614 89.2209 215.61 87.5205 213.806 87.9877C212.003 88.4549 207.868 91.758 207.868 91.758V87.9877Z" fill="#231F20"/>
<path d="M252.173 27.4722L253.558 33.345L265.575 31.9216L268.628 25.4567L252.173 27.4722Z" fill="#2DBFAC"/>
<path d="M256.627 63.1274L257.817 58.1075L247.229 60.737L245.729 66.1535L256.627 63.1274Z" fill="#231F20" stroke="#231F20" stroke-linejoin="round"/>
<path d="M38.2253 103.563C38.2253 103.563 33.3358 102.2 29.7556 102.14C26.1754 102.08 23.4319 104.96 23.4319 104.96L25.7951 107.991C27.4382 107.448 29.1304 107.065 30.8476 106.85C33.0207 106.682 37.0029 107.622 37.0029 107.622L38.2253 103.563Z" fill="#2DBFAC"/>
<path d="M70.398 178.905C70.398 178.905 65.7041 180.855 62.8628 183.012C60.0215 185.169 59.6031 189.129 59.6031 189.129L63.33 190.058C64.2826 188.617 65.3744 187.272 66.5897 186.043C68.176 184.582 71.9083 182.849 71.9083 182.849L70.398 178.905Z" fill="#231F20" stroke="#231F20" stroke-linejoin="round"/>
<path d="M80.7148 126.924L70.8326 126.028L72.5385 130.233L82.3664 130.798L80.7148 126.924Z" fill="#231F20" stroke="#231F20" stroke-linejoin="round"/>
<path d="M52.0082 13.6079C52.0082 13.6079 44.9836 10.2885 42.6475 10.1363C40.3115 9.98422 37.7581 13.2765 37.7581 13.2765L41.561 16.3894C41.561 16.3894 43.1908 14.4228 45.0651 14.6238C46.9394 14.8248 52.5623 17.3402 52.5623 17.3402L52.0082 13.6079Z" fill="#2DBFAC"/>
<path d="M42.6258 147.145C42.6258 147.145 38.2416 147.444 36.2532 148.682C34.2648 149.921 30.8204 155.169 30.8204 155.169L35.7099 155.484C35.7099 155.484 37.5407 152.388 39.1651 151.475C40.7895 150.562 45.2118 149.845 45.2118 149.845L42.6258 147.145Z" fill="#2DBFAC"/>
<path d="M2.36362 89.0906L1 84.3043L12.3979 80.2406L20.1776 83.0439L2.36362 89.0906Z" fill="#231F20" stroke="#231F20" stroke-linejoin="round"/>
<path d="M25.6593 49.8987L24.8987 55.5053L14.5873 56.0703L10.8007 52.0283L25.6593 49.8987Z" fill="#2DBFAC"/>
<path d="M223.287 231.505C225.444 231.505 227.193 229.756 227.193 227.599C227.193 225.441 225.444 223.692 223.287 223.692C221.129 223.692 219.38 225.441 219.38 227.599C219.38 229.756 221.129 231.505 223.287 231.505Z" stroke="#231F20" stroke-linecap="round" stroke-linejoin="round"/>
<path d="M232.734 231.842C234.891 231.842 236.64 230.093 236.64 227.935C236.64 225.778 234.891 224.029 232.734 224.029C230.577 224.029 228.828 225.778 228.828 227.935C228.828 230.093 230.577 231.842 232.734 231.842Z" stroke="#231F20" stroke-linecap="round" stroke-linejoin="round"/>
<path d="M219.527 226.561C219.527 226.561 211.579 227.104 209.259 228.522C206.939 229.94 207.896 231.499 207.896 231.499" stroke="#231F20" stroke-linecap="round" stroke-linejoin="round"/>
<path d="M228.855 226.49C228.247 226.49 227.633 226.49 227.052 226.49" stroke="#231F20" stroke-linecap="round" stroke-linejoin="round"/>
<path d="M45.7279 83.3699C47.173 83.6143 48.6942 83.9131 50.2969 84.2826C63.1127 87.2489 69.1485 92.4806 69.1485 92.4806" stroke="#231F20" stroke-miterlimit="10"/>
<path d="M33.4443 54.1525C33.4443 54.1525 41.4468 54.9674 52.8556 61.5139C64.2644 68.0603 68.5291 74.8078 68.5291 74.8078" stroke="#231F20" stroke-miterlimit="10"/>
<path d="M221.331 63.9205C220.164 64.1342 218.944 64.3859 217.669 64.6757C204.848 67.6148 198.839 72.8737 198.839 72.8737" stroke="#231F20" stroke-miterlimit="10"/>
<path d="M234.521 34.5619C234.521 34.5619 226.546 35.3768 215.137 41.9233C203.729 48.4698 199.464 55.2227 199.464 55.2227" stroke="#231F20" stroke-miterlimit="10"/>
<path d="M129.539 46.2043C129.539 46.2043 130.522 50.632 129.963 51.4632C129.403 52.2945 127.551 51.724 127.551 51.724" stroke="#231F20" stroke-linecap="round" stroke-linejoin="round"/>
<path d="M122.156 54.2231C123.854 54.804 125.592 55.2633 127.355 55.5976C129.849 55.9942 132.103 55.7986 132.092 55.929C132.082 56.0594 129.697 58.1347 127.121 57.662C124.644 57.2057 121.982 54.1959 122.156 54.2231Z" stroke="#231F20" stroke-miterlimit="10" stroke-linecap="round"/>
<path d="M116.652 274.994H178.461" stroke="#231F20" stroke-miterlimit="10" stroke-linecap="round"/>
<path d="M102.913 300.12H174.783" stroke="#231F20" stroke-miterlimit="10" stroke-linecap="round"/>
<path d="M220.918 238.665H193.26" stroke="#231F20" stroke-miterlimit="10" stroke-linecap="round"/>
<path d="M230.365 259.418H168.812" stroke="#231F20" stroke-miterlimit="10" stroke-linecap="round"/>
<path d="M141.475 315.805H196.519" stroke="#231F20" stroke-linecap="round" stroke-linejoin="round"/>
<path d="M138.579 308.286H107.026C107.026 308.286 103.831 312.181 103.831 319.412C103.831 326.643 107.026 330.343 107.026 330.343H138.666" stroke="#231F20" stroke-linejoin="round"/>
<path d="M227.334 310.258H140.198C140.198 310.258 137.71 313.311 137.71 319.314C137.71 325.318 140.198 328.55 140.198 328.55H227.334C227.559 328.555 227.775 328.644 227.938 328.8C228.101 328.956 228.199 329.167 228.214 329.392C228.217 329.511 228.197 329.628 228.154 329.739C228.111 329.849 228.047 329.951 227.965 330.036C227.884 330.122 227.786 330.191 227.678 330.239C227.569 330.287 227.452 330.313 227.334 330.316H138.709C138.709 330.316 135.515 326.611 135.515 319.38C135.515 312.149 138.709 308.286 138.709 308.286H227.334C227.572 308.308 227.795 308.415 227.962 308.586C228.129 308.757 228.23 308.982 228.247 309.22C228.256 309.477 228.167 309.728 227.997 309.921C227.827 310.114 227.59 310.235 227.334 310.258V310.258Z" stroke="#231F20" stroke-linecap="round" stroke-linejoin="round"/>
<path d="M95.4919 288.136C96.8709 291.005 97.5646 294.156 97.5183 297.339C97.5807 300.575 96.7619 303.768 95.1497 306.575" stroke="#231F20" stroke-miterlimit="10"/>
<path d="M90.5317 288.185H177.651C177.651 288.185 180.14 291.238 180.14 297.241C180.14 303.244 177.651 306.477 177.651 306.477H90.5317C90.3055 306.482 90.0893 306.572 89.9263 306.729C89.7633 306.886 89.6652 307.098 89.6516 307.324C89.6488 307.443 89.6692 307.561 89.7119 307.671C89.7546 307.782 89.8186 307.883 89.9003 307.968C89.9821 308.054 90.0799 308.123 90.1882 308.171C90.2966 308.219 90.4133 308.245 90.5317 308.248H179.162C179.162 308.248 182.351 304.537 182.351 297.306C182.351 290.075 179.162 286.18 179.162 286.18H90.5317C90.2936 286.202 90.0712 286.309 89.9041 286.48C89.737 286.651 89.636 286.876 89.619 287.114C89.6037 287.376 89.6901 287.634 89.8602 287.833C90.0303 288.032 90.2709 288.158 90.5317 288.185V288.185Z" stroke="#231F20" stroke-linecap="round" stroke-linejoin="round"/>
<path d="M182.878 267.16H210.003C210.003 267.16 212.752 270.512 212.752 276.727C212.752 282.942 210.003 286.137 210.003 286.137H182.791" stroke="#231F20" stroke-linejoin="round"/>
<path d="M106.548 268.86H181.487C181.487 268.86 183.628 271.484 183.628 276.651C183.628 281.817 181.487 284.615 181.487 284.615H106.548C106.354 284.62 106.168 284.698 106.029 284.833C105.889 284.967 105.805 285.15 105.792 285.343C105.79 285.445 105.807 285.546 105.843 285.641C105.88 285.737 105.935 285.823 106.005 285.897C106.075 285.971 106.159 286.03 106.252 286.071C106.345 286.112 106.446 286.134 106.548 286.137H182.764C182.764 286.137 185.513 282.948 185.513 276.727C185.513 270.506 182.764 267.16 182.764 267.16H106.548C106.343 267.18 106.151 267.271 106.007 267.418C105.863 267.565 105.775 267.759 105.76 267.964C105.752 268.186 105.829 268.402 105.976 268.569C106.122 268.735 106.327 268.84 106.548 268.86V268.86Z" stroke="#231F20" stroke-linecap="round" stroke-linejoin="round"/>
<path d="M222.374 310.128C221 312.998 220.308 316.148 220.353 319.331C220.306 322.559 221.132 325.741 222.743 328.539" stroke="#231F20" stroke-miterlimit="10"/>
<path d="M226.352 267.454L212.764 274.531L241.745 330.179L255.333 323.103L226.352 267.454Z" stroke="#231F20" stroke-linecap="round" stroke-linejoin="round"/>
<path d="M243.002 266.354L229.414 273.43L259.02 330.279L272.608 323.202L243.002 266.354Z" stroke="#231F20" stroke-linecap="round" stroke-linejoin="round"/>
<path d="M110.829 268.817C112.012 271.284 112.607 273.991 112.567 276.727C112.616 279.502 111.914 282.239 110.535 284.648" stroke="#231F20" stroke-miterlimit="10"/>
<path d="M164.971 248.259H137.954C137.954 248.259 135.238 251.595 135.238 257.788C135.238 263.982 137.954 267.16 137.954 267.16H165.058" stroke="#231F20" stroke-linejoin="round"/>
<path d="M240.981 249.954H166.357C166.357 249.954 164.227 252.568 164.227 257.712C164.227 262.857 166.357 265.644 166.357 265.644H240.981C241.175 265.648 241.36 265.724 241.5 265.858C241.64 265.992 241.724 266.174 241.736 266.367C241.741 266.572 241.664 266.77 241.522 266.919C241.381 267.068 241.186 267.154 240.981 267.16H165.086C165.086 267.16 162.369 263.982 162.369 257.788C162.369 251.595 165.086 248.259 165.086 248.259H240.981C241.186 248.28 241.376 248.372 241.519 248.521C241.661 248.669 241.746 248.864 241.758 249.069C241.766 249.288 241.69 249.501 241.545 249.666C241.401 249.831 241.199 249.934 240.981 249.954Z" stroke="#231F20" stroke-linecap="round" stroke-linejoin="round"/>
<path d="M232.87 233.352H168.095C168.095 233.352 166.248 235.623 166.248 240.083C166.248 244.543 168.095 246.972 168.095 246.972H232.87C233.037 246.974 233.198 247.04 233.319 247.156C233.44 247.272 233.512 247.429 233.522 247.597C233.526 247.774 233.46 247.947 233.338 248.076C233.216 248.205 233.048 248.281 232.87 248.287H166.992C166.992 248.287 164.618 245.527 164.618 240.137C164.618 234.748 166.992 231.863 166.992 231.863H232.87C233.046 231.882 233.211 231.961 233.335 232.088C233.459 232.215 233.535 232.382 233.549 232.559C233.56 232.753 233.495 232.944 233.369 233.092C233.242 233.239 233.063 233.333 232.87 233.352V233.352Z" stroke="#231F20" stroke-linecap="round" stroke-linejoin="round"/>
<path d="M229.181 233.314C228.156 235.446 227.641 237.788 227.676 240.154C227.635 242.552 228.244 244.918 229.436 246.999" stroke="#231F20" stroke-miterlimit="10"/>
<path d="M236.722 249.938C235.541 252.394 234.948 255.091 234.989 257.816C234.938 260.578 235.639 263.303 237.015 265.699" stroke="#231F20" stroke-miterlimit="10"/>
<path d="M289.822 330.479H55.8654" stroke="#231F20" stroke-linejoin="round"/>
<path d="M79.3186 3.19865C81.0788 2.28595 82.5294 2.48696 84.132 5.37176C86.5822 9.79402 87.1146 11.7335 85.7619 14.6889C84.4091 17.6444 84.3819 19.1927 84.458 20.1217C84.5341 21.0507 88.5217 46.3728 89.3475 49.3228C90.434 51.6588 95.8668 58.2705 95.8668 58.2705" stroke="#231F20" stroke-miterlimit="10"/>
<path d="M82.5075 62.5243C82.5075 62.5243 80.2964 59.2972 77.9386 52.3433C75.5808 45.3894 76.6565 21.4364 76.4446 20.8931C76.2327 20.3498 74.1954 19.3882 72.8753 17.3618C71.9517 15.9438 70.8488 14.2923 70.6533 12.6896C70.1861 8.79978 73.2936 7.51765 76.086 5.4206C76.6293 5.02401 77.1182 4.64372 77.5963 4.29602" stroke="#231F20" stroke-miterlimit="10"/>
<path d="M100.468 136.698C100.468 136.698 101.392 144.304 103.304 160.151C105.216 175.998 106.624 177.15 109.378 195.638C112.132 214.125 111.747 251.916 112.127 253.953C112.507 255.99 133.461 255.36 133.418 253.361C133.38 251.541 129.832 171.082 129.202 156.859L129.11 154.718C129.11 154.718 160.43 172.103 162.396 173.733C164.363 175.363 156.594 215.603 156.594 215.603C156.594 215.603 157.49 217.461 167.661 218.461C177.831 219.46 179.01 218.309 179.01 218.309C179.01 218.309 186.713 167.159 184.817 161.601C182.921 156.044 145.191 133.645 145.191 133.645" stroke="#231F20" stroke-linejoin="round"/>
<path d="M187.273 17.3564C188.22 17.9141 189.068 18.6245 189.783 19.4589C192.026 22.1753 194.737 24.1583 193.352 27.8199C192.809 29.3302 191.315 30.6721 190.092 31.8239C188.327 33.4537 186.148 34.035 185.811 34.5403C185.475 35.0455 179.868 59.7754 177.222 63.6598C175.61 66.0019 173.538 67.991 171.132 69.5055" stroke="#231F20" stroke-miterlimit="10"/>
<path d="M162.043 60.612C162.043 60.612 165.797 58.9822 167.356 57.5425C168.916 56.1028 177.847 32.6333 178.146 31.7478C178.445 30.8622 178.771 29.3465 178.178 26.1575C177.665 22.762 178.479 19.2994 180.449 16.4872C180.819 15.9928 180.911 15.7646 182.139 15.6179" stroke="#231F20" stroke-miterlimit="10"/>
<path d="M71.9409 8.49011C72.6825 8.52572 73.42 8.62019 74.1466 8.77263C74.7497 8.96277 76.1567 12.217 76.3523 12.5756C76.5479 12.9341 77.0477 13.7436 76.8956 14.1239C76.7625 14.3191 76.5776 14.4733 76.3616 14.5693C76.1457 14.6653 75.9073 14.6991 75.6732 14.6672C75.2169 14.6074 75.0485 14.4716 74.4508 13.9935C74.1738 13.7708 73.674 12.9069 73.2719 12.4343C72.952 12.0619 72.5579 11.7603 72.1148 11.5488" stroke="#231F20" stroke-miterlimit="10"/>
<path d="M75.4178 5.9259C75.4178 5.9259 75.8036 5.92589 76.8684 6.7571C77.9332 7.58831 78.8025 10.7828 79.1176 11.5651C79.2756 11.9441 79.3506 12.3526 79.3375 12.7631C79.3244 13.1736 79.2235 13.5765 79.0415 13.9447C78.9281 14.1846 78.7439 14.3841 78.5137 14.5162C78.2835 14.6483 78.0183 14.7067 77.7539 14.6835C77.1509 14.5803 76.7652 13.3796 76.7652 13.3796" stroke="#231F20" stroke-miterlimit="10"/>
<path d="M83.5615 4.51341C82.8689 4.23637 82.1499 4.03067 81.4156 3.8995C80.2313 3.69306 78.2266 2.44354 77.6127 3.1009C76.9988 3.75827 78.0473 5.64344 78.6992 6.19758C79.3512 6.75172 80.5409 7.56663 80.8723 7.78937C81.2037 8.01212 81.7307 9.41919 81.5297 9.71256C81.3287 10.0059 80.9104 11.3424 80.1769 11.9128C79.7717 12.3459 79.4642 12.861 79.2751 13.4231" stroke="#231F20" stroke-miterlimit="10"/>
<path d="M79.889 7.1156C79.889 7.1156 80.3943 8.12607 80.704 8.7943C80.9283 9.33642 81.1011 9.8985 81.2201 10.473" fill="white"/>
<path d="M79.889 7.1156C79.889 7.1156 80.3943 8.12607 80.704 8.7943C80.9283 9.33642 81.1011 9.8985 81.2201 10.473" stroke="#231F20" stroke-miterlimit="10"/>
<path d="M193.108 23.4302C192.377 23.2879 191.635 23.2044 190.891 23.1803C190.266 23.2238 188.12 26.0434 187.849 26.3422C187.577 26.641 186.893 27.3092 186.979 27.7221C187.057 27.9464 187.197 28.1441 187.383 28.2922C187.568 28.4403 187.792 28.5327 188.028 28.5587C188.49 28.613 188.685 28.5207 189.381 28.2002C189.696 28.048 190.386 27.3526 190.897 26.9669C191.297 26.6816 191.752 26.4819 192.233 26.3802" stroke="#231F20" stroke-miterlimit="10"/>
<path d="M190.337 20.1053C190.337 20.1053 189.967 20.0075 188.707 20.5726C187.447 21.1376 185.871 24.0224 185.377 24.7015C185.132 25.0327 184.961 25.4127 184.876 25.8157C184.79 26.2188 184.793 26.6355 184.882 27.0375C184.937 27.2988 185.07 27.537 185.264 27.7198C185.459 27.9025 185.705 28.0209 185.969 28.0589C186.577 28.1024 187.235 27.0267 187.235 27.0267" stroke="#231F20" stroke-miterlimit="10"/>
<path d="M181.748 15.6722C182.487 15.5705 183.235 15.5432 183.981 15.5907C185.181 15.6722 187.425 14.9387 187.86 15.7211C188.294 16.5034 186.833 18.0843 186.072 18.47C185.312 18.8558 183.356 19.3773 182.981 19.5131C182.606 19.649 182.345 20.7083 182.302 21.4363C182.311 22.3904 182.623 23.317 183.193 24.0821" stroke="#231F20" stroke-miterlimit="10"/>
<path d="M188.62 18.5135C188.62 18.5135 186.246 19.323 185.697 19.8446C185.193 20.3719 184.724 20.9327 184.296 21.5233C183.877 22.2059 183.54 22.9352 183.291 23.6964C183.134 24.2541 183.031 24.8252 182.981 25.4023C182.97 25.6578 183.043 25.91 183.188 26.1207C183.333 26.3314 183.542 26.4892 183.785 26.5703C184.144 26.6518 184.521 26.5996 184.844 26.4236" stroke="#231F20" stroke-miterlimit="10"/>
<path d="M116.484 255.24L115.506 260.249" stroke="#231F20" stroke-linejoin="round"/>
<path d="M129.637 259.902L128.67 254.665" stroke="#231F20" stroke-linejoin="round"/>
<path d="M160.104 217.255L158.077 223.703L163.733 224.817L171.779 223.676L171.599 218.836" stroke="#231F20" stroke-linejoin="round"/>
<path d="M131.815 61.8235C131.815 61.8235 131.788 64.4149 132.451 65.6264C133.114 66.8379 137.694 66.8325 137.694 66.8325" stroke="#231F20" stroke-linecap="round" stroke-linejoin="round"/>
<path d="M119.282 59.9274C119.282 59.9274 119.45 63.3391 118.597 64.0671C118.103 64.48 116.853 64.5126 115.881 64.4637" stroke="#231F20" stroke-miterlimit="10"/>
<path d="M115.017 48.9315C115.87 55.5975 118.646 62.9752 126.747 62.9752C141.524 62.9752 140.024 35.9092 140.024 35.9092" stroke="#231F20" stroke-linecap="round" stroke-linejoin="round"/>
<path d="M114.778 41.7767C114.778 41.7767 111.415 41.467 111.959 44.9875C112.502 48.5079 114.871 48.9262 114.871 48.9262" stroke="#231F20" stroke-linecap="round" stroke-linejoin="round"/>
<path d="M168.416 66.6804C164.037 62.4918 161.071 59.7047 161.071 59.7047L160.761 59.9547C157.328 62.7417 147.913 66.3273 147.913 66.3273C144.831 67.0642 141.631 67.1677 138.508 66.6315C136.178 66.224 135.792 65.947 135.586 66.1588C135.379 66.3707 135.488 66.3598 135.216 67.0226C134.64 68.4243 131.549 70.994 127.513 71.1841C123.476 71.3743 117.913 66.7184 116.919 64.6648C116.636 64.0835 116.582 64.0183 116.375 63.9368C115.475 64.015 114.581 64.1493 113.697 64.3389C112.17 64.5453 108.199 65.5069 105.488 65.1266C99.5502 62.8503 97.4369 57.8576 95.1116 54.0927L94.9052 53.7559C94.9052 53.7559 92.3572 56.0213 86.843 58.5258L79.1665 62.0137C81.0951 66.4196 83.692 70.1628 88.6249 76.9918C93.5579 83.8207 98.4039 88.0855 100.876 92.3121L101.028 91.3994C100.93 93.8333 100.876 96.1694 100.876 98.2664C100.876 110.789 98.2952 136.296 98.2952 137.926C98.2952 139.555 116.62 135.693 129.262 135.318C141.904 134.943 147.369 135.682 148.695 135.198C150.02 134.715 148.353 130.532 148 126.473C147.646 122.415 143.365 114.342 145.538 99.1411C146.082 95.4034 146.516 92.7359 146.886 90.8344C150.482 89.7479 154.144 87.3357 159.381 83.7012C166.292 78.8878 169.986 76.1986 173.256 72.6782C173.213 72.6945 172.805 70.8745 168.416 66.6804Z" fill="#2DBFAC"/>
</svg>
